<svg xmlns="http://www.w3.org/2000/svg" xmlns:xlink="http://www.w3.org/1999/xlink" viewBox="0 0 122.58 76.44"><defs><style>.cls-1{fill:none;}.cls-2{fill:#ff242f;}.cls-3{clip-path:url(#clip-path);}.cls-4{fill:#ff5263;}.cls-5{fill:#c10811;}</style><clipPath id="clip-path"><ellipse class="cls-1" cx="53.33" cy="38.32" rx="33.99" ry="36.98"/></clipPath></defs><g id="Layer_2" data-name="Layer 2"><g id="OBJECTS"><ellipse class="cls-2" cx="53.33" cy="36.99" rx="33.99" ry="36.98"/><g class="cls-3"><path class="cls-4" d="M19.75,44.64a1.08,1.08,0,0,0-.14.24C19.78,44.77,19.79,44.7,19.75,44.64Z"/><path class="cls-4" d="M49.06,31.69h0a1.62,1.62,0,0,0,.1-.18.64.64,0,0,1,0-.07Z"/><path class="cls-4" d="M27.78,39.07l0,.18C27.81,39.16,27.92,39,27.78,39.07Z"/><path class="cls-4" d="M38.32,39.51l-.09.12A.15.15,0,0,0,38.32,39.51Z"/><path class="cls-4" d="M65.46,25l.22-.23A.45.45,0,0,0,65.46,25Z"/><path class="cls-4" d="M86.37,21.69h0s0,0,0,.05Z"/><path class="cls-4" d="M73.53,24.37a.42.42,0,0,0,.18.11A.19.19,0,0,0,73.53,24.37Z"/><path class="cls-4" d="M65.42,25h0l0-.05Z"/><path class="cls-4" d="M90.36,22.72h0v0Z"/><path class="cls-4" d="M90.28,26.91c-.06.12-.12.22-.07.26A1,1,0,0,1,90.28,26.91Z"/><path class="cls-4" d="M76.87,30.42a.12.12,0,0,0-.09-.08C76.81,30.43,76.84,30.44,76.87,30.42Z"/><path class="cls-4" d="M91.38,25.43h0s0,0,0-.05Z"/><path class="cls-4" d="M66.5,32.91c0,.05,0,.09.1.13A.7.7,0,0,0,66.5,32.91Z"/><path class="cls-4" d="M76.28,22.7a.64.64,0,0,0-.2.08A.3.3,0,0,0,76.28,22.7Z"/><path class="cls-4" d="M68.71,30.17l0,.06h0Z"/><path class="cls-4" d="M69.65,30.39a.36.36,0,0,0-.1.14A.16.16,0,0,0,69.65,30.39Z"/><path class="cls-4" d="M72.94,30.23l.12-.1Z"/><path class="cls-4" d="M81,25.92a.4.4,0,0,0-.15,0s0,0,0,.06S80.94,26,81,25.92Z"/><path class="cls-4" d="M69.92,29.13a.39.39,0,0,0-.1.19A.27.27,0,0,0,69.92,29.13Z"/><path class="cls-4" d="M90.61,22.71c.08-.17.38-.23.25-.52C90.94,22.52,90.35,22.39,90.61,22.71Z"/><path class="cls-4" d="M91.12,22.68l-.34.19.25.07C91,22.85,91,22.73,91.12,22.68Z"/><path class="cls-4" d="M93,24.71c-.3-.28-1.23-.22-1.1.4.13-.3.21-.48.5-.53.3.78-.42.36-.37,1.15C92.61,25.66,92.61,24.9,93,24.71Z"/><polygon class="cls-4" points="91.94 26.2 92.19 25.93 92.15 25.89 91.89 26.16 91.94 26.2"/><path class="cls-4" d="M23.59,37.75c.63-.24,1.23-.44,2.2-.87Z"/><polygon class="cls-4" points="81.13 29.72 81 30.02 81.13 29.89 81.13 29.72"/><path class="cls-4" d="M78.13,28.93l.2-.23C78.29,28.75,77.91,28.64,78.13,28.93Z"/><path class="cls-4" d="M76.49,31.23c.29-.14.12-.29,0-.46C76.78,31.09,76.06,31,76.49,31.23Z"/><path class="cls-4" d="M72.36,29.29c.13,0,.29.06.36-.07C72.52,29.1,72.47,29.18,72.36,29.29Z"/><path class="cls-4" d="M63.56,25.21c0-.3-.38,0-.29,0S63.48,25.13,63.56,25.21Z"/><polygon class="cls-4" points="65.79 30.28 65.45 30.46 65.53 30.54 65.79 30.28"/><path class="cls-4" d="M26,37.23c0-.12.25-.39.38-.26l0,.29.33-.68-.71.25Z"/><path class="cls-4" d="M26.8,37.07c.09.33.47,0,.55-.07l-.17-.91a.55.55,0,0,0,0,.88C26.93,37.28,26.92,36.52,26.8,37.07Z"/><polygon class="cls-4" points="30.01 35.56 29.95 35.78 30.22 35.76 30.01 35.56"/><path class="cls-4" d="M30,35.78l-.27,0a1.65,1.65,0,0,0,.16.35Z"/><path class="cls-4" d="M29.29,35.89l0-.06-.3,0Z"/><path class="cls-4" d="M29.08,35.36l.19.47.41,0C29.56,35.49,29.43,35.16,29.08,35.36Z"/><path class="cls-4" d="M35.73,39.91c0,.11-.27.33-.16.49l.41-.25C35.87,40.16,35.8,40,35.73,39.91Z"/><path class="cls-4" d="M36,40.15a.33.33,0,0,0,.18-.12Z"/><path class="cls-4" d="M27.85,36c0-.21-.21,0-.29.06C27.64,36,27.77,36.06,27.85,36Z"/><path class="cls-4" d="M20.43,38.72c.08.08.12.12.21.12Z"/><path class="cls-4" d="M18.47,45.74c.23-.09.72-.19.79-.47-.08.2-.5,0-.57.33v-.08Z"/><path class="cls-4" d="M121.54,27.05l-.06-.48a.5.5,0,0,1-.83.33c0-.24-.14-.61,0-.7-1.29.24.24,2.57-.69,3.33.06-.05.14-.05.29.06.22-.21.62.46.6.81.31-1,.56,0,.22-1.75.14-.93.77.13.55.93l.72-1.31-.64-.11c-.18-1.46,1,.17.81-1.54Z"/><path class="cls-4" d="M119.36,27.64c-.07.47-.27.32-.45.41l.31-2.57c-.71-1.79-1.3-.46-1.82-1.14.81,1.56-.14.93,1,2.07l0,1.9-.84-.25c.13.62-.29,1.26.2,1.7.05-.11.15-.34.28-.31.23,1.35-.83.93-.29,2.22.49-.52.65-.25.76-1.43a1.64,1.64,0,0,1,1.38.59c.12-.25-.05-1.07.11-1.29a.38.38,0,0,1-.13.09Z"/><path class="cls-4" d="M58.3,59.13c-.17.09-.12.58-.09.82l2.06-.61c-.19-.51-.94-1-.61-1.41-.32-.53-.74.11-.65.84l0-.84c-.23,1.16-1-.76-.87-1.45l0,0-.39,4.31C58.22,60.9,57.73,59.35,58.3,59.13Z"/><path class="cls-4" d="M15.58,68.32a2.8,2.8,0,0,0-.14.64A.54.54,0,0,0,15.58,68.32Z"/><path class="cls-4" d="M57.59,61.82l-.12,1.34A6.12,6.12,0,0,0,57.59,61.82Z"/><path class="cls-4" d="M56,42.27c0-.07,0-.13-.06-.21l0,.68h0Z"/><path class="cls-4" d="M25.94,55.44,26,56C26,55.7,26.14,55.4,25.94,55.44Z"/><path class="cls-4" d="M57.59,61.82l.09-1a.88.88,0,0,1-.19-.1A6,6,0,0,1,57.59,61.82Z"/><path class="cls-4" d="M57.35,57l.72-.45.08-.93A12,12,0,0,0,57.35,57Z"/><path class="cls-4" d="M57.24,63.72c-.61-1.41-.71-1.19-.59-2.72-.26.91.19,2.06-.47,2.31.09-.82-.24-2.54-.93-2.54-1.27,1.93-1.34,6.45-2.34,9-.33-1.13-1.44-.48-2.08-.58a2.36,2.36,0,0,1,.66-2.13c-.29,0-.78.1-1.15.14l.43,2.45c-1.55.7-.07-2-.91-2.29-.39.35-.33,1.31-.54,1.67,1.08-1.13.53,3.06,1.7,2.22.21,1.7-.5,2.06-1,1.73-.86-1.46.16-1.29-.1-2.88-.45.4-.29.67-.3,1.62-.9-.15-1.21,2.42-2.21.35-.5.51-.29,1.26-.42,2.2.3,1.55.93.84,1.45,1.62a1.28,1.28,0,0,1-.11-.33l.59.22c-.62-.46-.33-1.73-.11-1.93s.53-.27.59.22l-.19.44c.49.44.51-1.46,1.11-.65a3.18,3.18,0,0,1,0,.84c.15-1.28.58-1.33,1-2.33l0,1.79c.06-2,1.34-1.8,2.37-1-.15-.27-.36-.42-.34-.78.37-.53,1,.53,1,1.48.13-1.53,2,.69,2.22-1.3l.85-9.4A1.29,1.29,0,0,1,57.24,63.72Z"/><path class="cls-4" d="M48.4,75.92a2.15,2.15,0,0,0,.16.31A2.2,2.2,0,0,0,48.4,75.92Z"/><path class="cls-4" d="M53.43,64.61a.35.35,0,0,0,.18.18A.61.61,0,0,0,53.43,64.61Z"/><path class="cls-4" d="M51.61,67l-.12.13h.15S51.62,67,51.61,67Z"/><path class="cls-4" d="M56.5,58.24c0-.36.07-.47.09-.82a3.62,3.62,0,0,1-.13.35A.67.67,0,0,0,56.5,58.24Z"/><path class="cls-4" d="M57.36,60.64a.56.56,0,0,0,.13.07,1.37,1.37,0,0,0-.19-.55Z"/><path class="cls-4" d="M42.21,61.05l-.1.29C42.2,61.29,42.22,61.18,42.21,61.05Z"/><path class="cls-4" d="M52.39,65.06c.37.28.58-.8,1-.45-.3-.59,0-2.3-.69-1.28,0-.1,0-.24,0-.35-.77-.73-.64.85-1.13,1-.44-.54.24-1.15-.09-1.32-.48.75-2.1-.23-1.5,2.13-.4.29-.59-.21-.82-.61-.11,2.72-2.86-.35-2.09,2.87.22-.2.66-.24.87-1l.52,2.23c.53-.27-.33-1.73.45-2l-.25,0c.39-.88,1.46-.83,2.12-1.07.09.7.6.71.77,1.79A2.11,2.11,0,0,0,52.39,65.06Z"/><path class="cls-4" d="M55.61,58.66a.24.24,0,0,1-.12,0S55.57,58.66,55.61,58.66Z"/><path class="cls-4" d="M112.53,28.33l.17.12A.24.24,0,0,0,112.53,28.33Z"/><path class="cls-4" d="M75,38.06a.33.33,0,0,0-.26,0Z"/><path class="cls-4" d="M109.58,29h0s0,.08,0,.12Z"/><path class="cls-4" d="M90.85,31.53a1.54,1.54,0,0,0,.31.38A.61.61,0,0,0,90.85,31.53Z"/><path class="cls-4" d="M63.24,37l-.27.38A.53.53,0,0,0,63.24,37Z"/><path class="cls-4" d="M71.45,37.43a2.53,2.53,0,0,0,0,.28A.39.39,0,0,0,71.45,37.43Z"/><path class="cls-4" d="M116,33.65h0l0,.23Z"/><path class="cls-4" d="M116.15,30.54c.08-.09.17-.17.25-.25A.35.35,0,0,0,116.15,30.54Z"/><path class="cls-4" d="M96.41,33.38c.15.26.44.55.42.9C96.9,33.82,96.65,32.82,96.41,33.38Z"/><path class="cls-4" d="M117.34,46.5a5.24,5.24,0,0,1,0-.72A1.28,1.28,0,0,0,117.34,46.5Z"/><path class="cls-4" d="M98.06,50.45c0-.13-.11-.23-.17-.25C98,50.46,98,50.51,98.06,50.45Z"/><path class="cls-4" d="M116.71,30.54c-.06-.48,1-1.86-.16-1.81-.3-1.48.52-.87.72-1.31-.29-.29-.12-1-.31-1.48-.09.22-.16.68-.42.65-.26-.65,0-1.2.32-1-.53-.68.15-1.28-.47-1.74-.9.8-1.5,1.54-1.71,3.89.5-.52,1-1.14,1.67-.68l.09,1.32c-.8-1-.94,0-1.5,0l1.36.34c.81.9.49,1.25.1,1.6C116.51,30.28,116.63,30.33,116.71,30.54Z"/><path class="cls-4" d="M118.54,41.93l0,0c0-.05,0-.09,0-.14Z"/><path class="cls-4" d="M69.37,62.72v.51A1.36,1.36,0,0,0,69.37,62.72Z"/><path class="cls-4" d="M83.05,53.45a.66.66,0,0,0,.2.4A4.3,4.3,0,0,0,83.05,53.45Z"/><path class="cls-4" d="M94.47,27.82a.39.39,0,0,0-.27.14A.27.27,0,0,0,94.47,27.82Z"/><path class="cls-4" d="M72,62.22a2.75,2.75,0,0,1,0,.48A2.06,2.06,0,0,0,72,62.22Z"/><path class="cls-4" d="M85.48,46.38l0,.16.06.05Z"/><path class="cls-4" d="M87,47a3.31,3.31,0,0,0,0,.45c.33-.66,1.3-.32,1.08-1.7a1.6,1.6,0,0,1-1.19-1.33c-.23.43-.93-.39-1-.12.7.6.33,1.13.08,1.69-.41-.31-.19-1.11-.53-1.28l-.71.35h.69l.11,1.36c0-.05,0-.09,0-.15C86.47,45.32,86.06,48.11,87,47Z"/><path class="cls-4" d="M87,47.41a.9.9,0,0,0-.1.36C87,47.73,87,47.58,87,47.41Z"/><path class="cls-4" d="M92.12,48c0,.06-.09.15-.14.26A1.45,1.45,0,0,0,92.12,48Z"/><path class="cls-4" d="M59.44,55.62l-.65-.15,0,.16C58.86,56,59.69,56.62,59.44,55.62Z"/><path class="cls-4" d="M102.79,39.08a.35.35,0,0,0-.22,0v.17C102.65,39.42,102.75,39.2,102.79,39.08Z"/><path class="cls-4" d="M86.89,44.38a.92.92,0,0,0,.09-.52A1.1,1.1,0,0,0,86.89,44.38Z"/><path class="cls-4" d="M103.4,41.45a5,5,0,0,1,.5,1c.19-.05.19-.61.34-.85C104.06,41.85,103.79,41.82,103.4,41.45Z"/><path class="cls-4" d="M118,42.2c.37-.54-.66-1.3-.32-2.08.52-.87,1.51.61,1.49-1.18-.69,0-1.78-.66-1.86.17l.43,0-.47,2.31c-.22-.76-.73.71-1-.53.27-.31.58-.38.8-.58-.18-.51-.94,0-1.32-.1l.54.32c-.54,1.23-1.61,1.17-2.18,2.15.36-1.14-1-.64-.72-1.79,0-.71.59.22.43,0-.2-1.11-.51-.09-.85-.86.08.73-.59,1.33,0,2-.36-.42-.64.85-1.16.17.4,1.25-.44,1-.43,1.6-.17,0-.36-.25-.53-.51.22-.5.48-1.15.74-1.85h0c.21.15.51.08.35-.18l-.1-.49c.52-1.4,1-2.84,1.31-3.49l0,.71c.22-1.75,1.22-.27,1.55-1.65,0,.25,0,.36.11.38.82,0,.6-2.29,1.45-1.43l.09.73a2.54,2.54,0,0,0,0-1.55c-.45.4-.47.76-1,.67,0-.69.32-1.34.62-1.43l-.26-1.25c.08-1.42.92.39,1-1l-.65-.71a.39.39,0,0,1,.05-.14.89.89,0,0,0-.29.7c-.52.86-1.29-.81-1.56-1.45-.41-.31-.25-1.59-.47-2.35-.45.41-.1,1.78-.55,2.18a.61.61,0,0,1-.14-.62l-.21.8c-.11-.38-1.05-.41-.74-1.44.09,0,.22-.06.34,0-.92-.7-2.39-1.34-2.68-2.73-.46-.2-.2.44-.91.2-.06,1.06.49,2,0,2.86l.65.34c.07-.22.1-.49.18-.68l-.53.27c.25-.56.06-1.07-.06-2,.84-.34,1.48,1.32,2,1.65-.09.82-.6.73-.15,1.88-.68-.95-.23,1.15-1,.31l0-.35c-.19,1-.51-.08-.65.85a1.31,1.31,0,0,0-.18-.51c-.6.74.39.66-.07,2-.69,0-.67-1.9-1-2.43.71-1.91-.49-2,.37-3.64-.38-1.61-.89-1.69-1.47-1.31.57.57.3,2.43,1.1,3.4-.74,1.07.07,4.18-1.32,3l0-.25-.16,1.29-.74-.48c0-1.8.61-1.09.67-2.16-1.12-1.49-.58,1.94-1.44,2-1.15-1.74.59-1.33.2-3-.07.47-.72-.23-.77-.72.92.39.23-1.15,1.31-.5-.29.67.19.51.28,1.24,0-.6.74-1.07,1.38-1-.14-1.22-.73-.84-1.22-1.28-.38,1.49-1.64-.63-1.81,1-.71.36-.33-1.12-.41-1.25-.8-.37-.06,1.06-.2,1.39-.8,1.18-1.45-1.07-2.19-1-.22,1.76-1.8,1.61-2.84,1.8a4.26,4.26,0,0,0-.44-1.51,6.5,6.5,0,0,1-.5,3l.82.61c-.45.41-.5,2.07-1.26,1,1.11,1.85-.48,1.71-.69,2.5-.7-.58-.87,1-1.46-.12l0-.11h-.81l-.37-2c-.7-.59-1,1-.68,1.55-.67-.34-.4-.66-.69-1.54.17-.69.44-2.55,1-1-.08-.13-.21-.15-.18.09,1.64.49-.09-2.48.51-3.18-.4,0-.9-.89-1.18-.27a5.13,5.13,0,0,0-1,1.87c.31-1,.79-.23,1.36.34-.39-.06-.19,1.05-.63.5l0-.36-.22.8c-.32-1.13-1.15-.19-.89-1.7-.46.41.07,1.09-.31,1.62l1,.17.27,1.24c-.14.93-.43,0-.79.23l.36,1.36-.93-1c.29.88-.3.66-.4.89-.49-.44-.75-2.63-1.09-1.26l.08.14c-.25.55-.39.89-1,.66a1.2,1.2,0,0,1,.11-.57c-.87-.5-1.52,1.89-2.31,0-.2-1.1.24-.55,0-1.79,1.47,1.32.29-2.21,1.8-1.61.71,2.74.71-1.91,1.59.74-.58-.21-.86,1.65-.7,1.91a1.72,1.72,0,0,1,1.45-.33,8.06,8.06,0,0,1-.78-3.37c-.33.57-1.08.3-1.88,0a.48.48,0,0,0,.12-.25h-.09c.13-.22.63-.83.13-.8.29-.4.55.18.76-.05.08.25-.13.39,0,.55a.79.79,0,0,0,.59-.2c-.21,0,0-.26-.34-.32.09-.17.38-.31.34-.44-.08.09-.13.22-.34.11a1.13,1.13,0,0,1,1-.23.53.53,0,0,1,0,.2c.33-.57,1-.63,1.18-1.23l-.15-.06a.27.27,0,0,1-.4.14c.3-.23-.34-.4,0-.71s1,.07,1.09-.57c-.46.07-1.14-.06-1.26.24l.29-.06-.5.87c-.09-.25-.55.32-.64-.09.22-.14.43-.19.59-.28-.08-.17-.63.07-.88.09l.34.06c-.47.49-1.18.57-1.65,1,.34-.44-.59-.13-.34-.57.08-.25.38,0,.3-.05,0-.38-.34,0-.51-.23,0,.25-.51.53-.13.72-.21-.11-.5.36-.8.17.17.41-.37.4-.42.61a.43.43,0,0,1-.31-.13c.19-.2.41-.45.65-.73h0c.12,0,.33,0,.25-.09l0-.17c.46-.54.92-1.11,1.16-1.36l-.08.25c.29-.64.84-.21,1.18-.73,0,.08,0,.13,0,.12.55-.07.59-.87,1.1-.65v.26s.24-.31.13-.55c-.34.18-.38.31-.72.33a.94.94,0,0,1,.53-.57l-.07-.42c.16-.51.59.05.76-.46l-.38-.19s0,0,0-.06-.24.17-.25.28c-.37.32-.72-.05-.88-.28.48-.15,1-.4,1.51-.59.28.2.06.34-.19.48.08,0,.15,0,.19.06,0-.13.52-.54.3-.62a2.74,2.74,0,0,1,.39-.09c-.06.14-.12.27.07.34S92,21,92,21c0,.46-.64.41-.38.82.38-.23.47-.15.63-.58a1.39,1.39,0,0,1,.89.07h0l.76.5a.78.78,0,0,1-.25.9c-.11.16-.31-.09-.2-.25-.49.89.63.18.38,1.08-.19-.09-.36.15-.48.15.89.36.91-1.13,1.66,0,.19-.82.74-1.8,1.57-1.36-.14.57.72-.31.61.76.15-.57.92-.06.88-.72,0,.25-.35.32-.61.15.23-.32.12-.91.49-.89a.48.48,0,0,1,.08.24c.33-.64-.32-2.07.46-2.29,2-1,.22,2.23.61,2.57,0-.49.79-1.13,1.3-.79l0,.25c.17-.24.38-.73.72-.31a19.77,19.77,0,0,1,0-2.23l.9-.38-.09.49a1.11,1.11,0,0,1,.53-.4c.22.59-.09.49-.32.82.28.5.46.42.54-.23h-.12c.16-.41.82-1.54.08-1.56.38-.74.83.44,1.11,0,.16.5-.14.74.14,1.07.37,0,.61,0,.84-.3-.32-.09,0-.5-.54-.68.1-.33.51-.56.44-.81-.12.16-.16.41-.49.15a1.22,1.22,0,0,1,1.46-.29,1.2,1.2,0,0,1,0,.38c.42-1.06,1.41-1.09,1.58-2.23l-.23-.16c-.08.33-.38.45-.57.22.41-.4-.55-.84-.15-1.41.57-.64,1.43.29,1.54-.95-.68.07-1.69-.29-1.84.28l.43-.07-.63,1.64c-.15-.5-.76.55-.94-.28a6.72,6.72,0,0,1,.83-.47c-.14-.34-.92.05-1.29,0l.5.18c-.61.89-1.66.95-2.29,1.67.44-.81-.89-.36-.57-1.17.09-.49.56.1.42-.07-.11-.75-.49,0-.77-.52,0,.5-.68,1-.09,1.4-.33-.26-.7.64-1.16.22.31.83-.5.72-.54,1.14a.81.81,0,0,1-.47-.31c.25-.36.55-.83.85-1.34h0c.19.08.49,0,.35-.16l-.07-.32c.62-1,1.22-2.06,1.55-2.53l-.1.5c.35-1.23,1.22-.3,1.65-1.28,0,.17,0,.25.07.25.8-.06.76-1.63,1.53-1.11l0,.5a1.42,1.42,0,0,0,.11-1.07c-.47.31-.52.56-1,.55a1.38,1.38,0,0,1,.71-1l-.16-.84c.18-1,.87.19,1.05-.79l-.58-.43s0-.07.06-.11a.69.69,0,0,0-.34.51c-.57.65-1.2-.44-1.42-.86-.38-.18-.13-1.08-.29-1.58-.47.32-.23,1.23-.7,1.55-.19-.09-.14-.33-.09-.42l-.27.57c-.07-.25-1-.19-.62-.92a2.81,2.81,0,0,1,.35-.06c-.86-.4-2.25-.71-2.43-1.65-.44-.1-.23.32-.92.22-.13.74.34,1.33-.23,2l.61.18c.08-.16.14-.35.23-.49l-.54.24c.28-.41.14-.74.09-1.41.84-.3,1.35.79,1.86,1-.15.57-.64.56-.28,1.31-.6-.59-.32.82-1,.3l0-.24c-.25.73-.49,0-.69.64a.54.54,0,0,0-.15-.34c-.64.56.34.43-.21,1.4-.67.06-.52-1.25-.79-1.59.83-1.38-.34-1.33.63-2.54C98,4,97.53,4,96.93,4.27c.52.34.11,1.65.83,2.25-.81.8-.23,2.88-1.51,2.19V8.54l-.25.9-.7-.27c.1-1.24.69-.81.82-1.54-1-.94-.7,1.38-1.56,1.52-1-1.1.67-1,.42-2.05-.1.33-.69-.1-.71-.44.87.2.31-.81,1.32-.45-.33.48.15.33.18.83,0-.41.81-.8,1.43-.78,0-.83-.65-.52-1.1-.78-.48,1.06-1.56-.29-1.85.85-.72.31-.24-.75-.31-.83-.75-.19-.13.74-.3,1-.87.88-1.34-.62-2.07-.47-.35,1.23-1.89,1.27-2.92,1.48a1.93,1.93,0,0,0-.31-1,4,4,0,0,1-.72,2.13l.76.35c-.47.32-.64,1.47-1.3.79.94,1.18-.6,1.22-.87,1.79-.64-.35-.93.8-1.41,0l.06-.08-.8.06-.22-1.32c-.64-.35-1,.79-.78,1.13-.63-.18-.34-.43-.57-1,.22-.49.62-1.8,1.06-.8-.07-.08-.19-.08-.18.08,1.57.2.1-1.71.73-2.24-.39,0-.82-.54-1.14-.08A4.4,4.4,0,0,0,81.88,8.7c.38-.73.78-.22,1.3.12-.37,0-.26.74-.65.4l0-.25-.27.57c-.23-.75-1.11,0-.75-1.1-.47.32,0,.75-.41,1.15l1,0,.18.83c-.21.65-.43.07-.79.22l.25.92-.85-.6c.23.58-.34.48-.45.64-.45-.26-.55-1.75-1-.77l.06.09c-.28.4-.44.65-1,.54a.67.67,0,0,1,.16-.4c-.82-.28-1.63,1.44-2.27.18-.11-.75.28-.41.1-1.24,1.35.78.45-1.55,1.89-1.26.49,1.83.83-1.38,1.5.37-.56-.1-1,1.21-.83,1.38a2.48,2.48,0,0,1,1.45-.35A3.72,3.72,0,0,1,80,7.91c-.36.42-1.08.3-1.84.15a.44.44,0,0,0,.13-.18h-.08c.14-.16.68-.63.18-.56.32-.3.52.07.75-.1.06.16-.15.28,0,.37a1.07,1.07,0,0,0,.6-.19c-.21,0,0-.17-.31-.19.09-.12.39-.25.36-.33-.09.07-.14.16-.34.1a1.6,1.6,0,0,1,1-.24.53.53,0,0,1-.06.14c.37-.42,1-.52,1.25-.95l-.15,0a.35.35,0,0,1-.4.13c.31-.18-.3-.25,0-.49s1,0,1.12-.48c-.46.09-1.12.06-1.26.27l.29-.06-.56.64c-.06-.16-.56.27-.61,0,.22-.11.43-.17.6-.24-.07-.11-.63.1-.88.13l.33,0c-.49.38-1.2.49-1.68.81.36-.33-.57,0-.29-.36.1-.18.37,0,.29-.07,0-.25-.33,0-.48-.11,0,.18-.54.41-.18.51-.2-.06-.52.3-.8.19.14.27-.39.3-.45.46a.51.51,0,0,1-.3-.07c.2-.15.44-.35.69-.56h0c.12,0,.33,0,.25-.09l0-.11c.5-.42,1-.85,1.25-1l-.1.19c.33-.47.84-.22,1.21-.61,0,0,0,.09,0,.08.54-.1.64-.65,1.12-.54l0,.17s.26-.23.17-.39a2,2,0,0,1-.73.29,1.07,1.07,0,0,1,.56-.44l0-.28c.2-.37.58,0,.78-.38l-.36-.1s0,0,.05-.05c-.14.07-.26.14-.27.22A.67.67,0,0,1,80,3.37c-.24,0,0-.38-.07-.54-.34.16-.25.46-.6.62-.12,0-.07-.11,0-.14L79,3.54c0-.08-.66,0-.34-.27,0,0,.15,0,.23-.06-.55-.06-1.46,0-1.51-.35-.28,0-.17.13-.63.16-.15.28.12.44-.32.73h.4c.07-.06.12-.13.2-.19l-.39.13c.23-.17.15-.27.18-.5.59-.19.85.14,1.17.16-.14.22-.48.26-.29.5-.36-.16-.28.32-.68.19l0-.09c-.23.29-.33,0-.52.3,0-.06,0-.08-.07-.11-.48.26.19.12-.26.52-.46.09-.25-.4-.4-.49.67-.57-.12-.44.63-1-.09-.35-.42-.31-.85-.15.32.08-.06.58.38.73-.61.36-.39,1.05-1.2.92V4.64L74.59,5l-.45,0c.17-.45.52-.36.67-.63-.59-.24-.58.56-1.17.69-.59-.3.53-.41.44-.77-.09.13-.45,0-.44-.09.58,0,.28-.32.93-.29-.26.21.07.11.06.28.05-.15.61-.36,1-.41,0-.29-.4-.12-.68-.17-.41.42-1,0-1.32.48-.51.18-.1-.25-.14-.27-.49,0-.15.28-.28.38-.65.39-.85-.09-1.36,0-.33.47-1.37.63-2.09.8.06-.14-.06-.22-.13-.32-.31.61-.2.37-.66.82l.49.06c-.34.15-.55.58-.94.4.54.33-.5.49-.73.72-.4-.06-.69.37-1,.15l.05,0-.55.09,0-.45c-.4-.06-.77.39-.62.48-.41,0-.19-.12-.3-.3.19-.2.57-.7.78-.39,0,0-.12,0-.13,0,1-.08.21-.62.68-.87-.27,0-.51-.11-.76.08a3.53,3.53,0,0,0-.84.59c.32-.3.55-.16.87-.08-.25,0-.23.28-.47.2l0-.09-.23.23c-.1-.25-.75.09-.42-.32-.34.16-.07.26-.37.45l.66-.09.06.28c-.19.25-.3.07-.55.16l.09.3L64.29,7c.1.19-.27.21-.36.28-.28,0-.23-.57-.59-.18l0,0a1.11,1.11,0,0,1-.73.29.31.31,0,0,1,.14-.16c-.53,0-1.22.67-1.55.28,0-.25.22-.17.17-.45.85.15.43-.59,1.38-.63.18.61.67-.57,1,0-.37,0-.75.52-.67.57a3.67,3.67,0,0,1,1-.26A.62.62,0,0,1,63.94,6c-.48.32-1.54.17-2.29.32l.17.35c-.58.44,0-.37-.51-.25l-.15.33,0,0-.29.44c.25-.09.07-.33.39-.25s.06.27,0,.51c-.2-.06-.79.18-.47-.17l-.59.56c0-.14.1-.24.16-.34l-.48.21V7.59c-.36.27-.91.43-1.15.77.74.08-.24.4-.14.59-.24,0-.47-.6,0-1,.19.18.47-.2.73-.29-.37,0-.43.17-.69.26.15-.22-.39-.12-.42-.26s0-.46.41-.42c.5-.12.13.32.26.22.22.32.69-.26,1-.24,0,0,0,.09-.09.12.26-.09.8-.24.79-.49L60,7.21c-.16,0,.15-.28-.09-.36a.85.85,0,0,1-.51.18V6.91a2.53,2.53,0,0,0-1.47.39,12.12,12.12,0,0,1-.2,1.59,13.32,13.32,0,0,1-2.14.47c.11-.3.54-.52,1-.64l-.19.19a.88.88,0,0,0,.66-.45s0,.08.11.13c.35-.16.46-.52.23-.66l-.09.12L57,7.86c0,.53-.77.45-1.12.78.22-.29.35-.82.77-.62l-.09-.24c.29-.12.6.06.72-.24L57,7.7l0-.14c-.25.09-.53.4-.8.31a1.11,1.11,0,0,1-.86.64v0c-.27.57-1.11,0-1.35.28,0,.52.66,0,.89.17-.19.26-.5.07-.23.29-.49.38-.42-.32-.8.13l.29.05c-.15.27-.52.24-.67.51.05.34.34-.1.75-.1l-.11.31.7-.49c.13-.48-.08-.42.33-.84a1.09,1.09,0,0,1,.53.93c-.24-.09-.59.13-.65-.15-.15.33-.72.72-.54.95l-.08.05a1.9,1.9,0,0,0-1.51-.22c-.14,0-.11.23,0,.48a1.11,1.11,0,0,0-.47,0c.08-.15.11-.33.32-.4l-1.12.21.05-.15-.39.31c.23-.14.62-.17.6.13-.45.34-.8.12-1.13.59-.12-.49-.28-.53-.2-.85a0,0,0,0,1,.05,0,1.61,1.61,0,0,1,.6-.84c-.95.09-.67.2-1.51.31-.13-.27.67-.52.44-.66l.79-.07c-.13.06-.13.13-.18.19.47-.35.72-.14,1-.58.28.06-.34.32-.05.3a1.23,1.23,0,0,0-.43.76c.62-.06.25-.46.73-.72l.44.14c.21-.11-.11-.13-.15-.21.26-.15.41,0,.62-.05-.07,0-.23-.08-.22-.2.4.12.71-.12,1.13.2-.24-.14.09-.55.23-.66l-.76-.22c-.82.37-1.39.32-2.25.77V8.91c-1.55-.09-1,1.1-2.23,1.45-.13-.38-.56.22-.6-.18.37-.07.26-.2.12-.35-.19.19-.26.51-.71.49.11-.25-.3-.31.09-.5-.58.07-.88.2-1.09.62-.84.59-.37-.35-1.24.1l.1-.18-.55.21.23.14-.62.42c-.36.33.23.2.21.38l.07-.33c.29,0,.62-.36.72-.17-.43.16-.27.36-.42.52l.39-.24.19.18c.42-.11.76-.15,1-.46-.2-.06-.23.28-.43.17.12-.42.64-.6,1.11-.86,0,.08.2.06.15.15s-.09.06-.14.06c.07.15-.19.33.31.29a4.53,4.53,0,0,0-.33.9,1.84,1.84,0,0,1-.89.26v-.06c-.25,0-.7.43-.8.19-.14.1-.52.29-.08.32l-.64.34c0-.49-.66-.4-.07-1l-.64.33a.09.09,0,0,1,0-.05.16.16,0,0,0,0-.09c.09,0,.13-.05.16,0,.17-.39-.21-.37-.58-.29l0,.28c-.36-.06-.6-.23-1,0L42,13.26l-.28.14c-.17-.11-.58.12-.48-.23-.07-.1.06-.2.27-.2,0,0,0,.06,0,.08a.41.41,0,0,0-.28-.48c.25,0,.29,0,.43-.17l-.25,0c.34-.16.8-.68.74-.9,0,.35-.33.1-.54.1.13-.1.41-.37.16-.33-.06.15-.67.51-.18.5-.17.14-.4.37-.65.34.23-.23,0-.29.06-.52a.92.92,0,0,0-.15.59c-.73-.08-1.13-.57-1.83-.14-.09.07.43-.23.41,0-.46.51-.8-.19-1.24.1l.22.31a5.68,5.68,0,0,1-.65.34c-.08-.1-.64-.2-.29-.42-.87,0-.55.95-1.51,1.1a2.67,2.67,0,0,0,.84-.16c-.32.3,0,.17,0,.43-.27-.17-.93.23-.52-.19-.29.06-.88.19-1,.38l.29,0a1.35,1.35,0,0,0-.9.74c.51-.18.39-.62,1.06-.76.78,0-.11.3.44.51l.45-.4-.25,0c0-.37.8-.18.64-.59.59.18.7-.06,1.34.09.1-.19-.11-.13-.27-.11.29-.07.21-.48.65-.34.2,0,0-.31-.35-.21a8.62,8.62,0,0,1,.89-.26l-.4-.18.34-.1-.32-.07a2.44,2.44,0,0,1,1.82-.11c-.5.43-1.46.58-1.67,1.12.15.09.37-.45.62-.11l.11-.3c.18-.13.61-.36.71-.12a2.75,2.75,0,0,0-.8.9c0,.05,0,.09-.11.13h0a2.63,2.63,0,0,0-.55.22c-.21,0-.11-.19-.1-.25-.73-.13-1,.81-1.72.79-.06-.22-.61-.12-.47-.28-.41.05-.57.38-.8.61-.1-.18-.62.11-.47-.17l-.29.44c-.28-.05-.77.27-.91.06-.26.15,0,.37-.41.36,0-.05,0-.08.05-.09a.82.82,0,0,0-.76.27c.28,0,.08.05.41,0,0,.14-.29.44-.7.38.42-.48-.47-.23-.28-.48-.8.19-1.14.77-1.72,1.27a7.61,7.61,0,0,0-2.31.87h.09l-.32.29c-.21.06-.09-.36-.39-.18,0-.34.55-.21.83-.53-.64-.15.46-.46,0-.6-.07.69-1.2.43-1.61.92-.5.06.16-.34-.09-.31l-.11.25c-.2,0-.28,0-.31-.19a2.28,2.28,0,0,0-1.46.69c.52-.29-.12.36.43.21a2.15,2.15,0,0,1-.82.42c.3-.19-.55-.34.2-.43-.17-.29-.34.16-.68.2.14-.16.46-.46.42-.48-.38.56-1.62.18-1.73.53-.29.38-.78.76-1.14,1.14-.48-.11-.92.18-1.42.24l.05-.15c-.28,0-.68.26-1.09.31L19.28,20a5.75,5.75,0,0,1-1.19.44c0,.14.41,0,.27.22.21-.05.38-.13.27-.26.21-.06.27.16.47.22l-.78.39c-.07,0-.1,0-.1,0v.27c-.22.05-.29,0-.28-.11-.44.23-.51.61-1,.67.15-.27.25-.46.59-.56l-.55.16c.19-.31,1.16-.52.9-.86A10.23,10.23,0,0,0,16,21.81c-.34-.21-.68.26-1.17.26-.08,0-.24-.08-.18-.23l.12,0a4.4,4.4,0,0,0-1.77.88l-.34-.22c-1,.15.28.42-.65.77-.31-.25-1.21.18-1.31-.06-.17.08-.26.09-.23.29.16,0,.5-.18.35.09-.3.18-.49.06-.75.15,0-.05.15-.27.06-.2-.6.3-1.78.62-2.26,1.31.21-.11.19-.31.52-.29,0,.14-.14.16-.19.25.1.24.27-.27.63-.17l-.45.46.35.15-1,1c1-.1,1.26-1.19,2.16-1.07-.11.11,0,.15.07.2.23-.2.54-.28.66-.49l.41-.11a.59.59,0,0,1-.47.63C12,25,13,24,14.51,23.83c.08.05-.18.14,0,.15.17-.14.48-.32.45-.4a.24.24,0,0,1-.15.22c.73-.35,1.24,0,1.68-.39.07.17-.35.22-.27.27.79-.07,1-.71,1.81-.92-.19.31.23.2.47.29a30.42,30.42,0,0,1,2.79-1.24c-.11.67,1.05-.28,1.25.21.21-.05.52-.23.49-.43-.09.12-.41.05-.4-.07.3-.12.77-.26.75-.52l.44.15c0-.2,0-.47.25-.52.58.35-.13-.33.6-.25a2.65,2.65,0,0,0-.22.6c.33,0,.26-.15.48-.26.11.13-.13.47-.35.64l.44,0a2.81,2.81,0,0,1,1.59-1.11c-.06.21-.27.26,0,.46.26-.15.55-.58.95-.52,0,0,0,.06,0,.09.58-.44.5-.06,1.09-.19a.38.38,0,0,1,0,.1l.31-.28c.64-.65.9,0,1.39.11l-.09.07a.68.68,0,0,0,.45,0l-5,1.48c.37,0,.75.29,1.14.36-.29,1.14.62,0,.68,1a.48.48,0,0,1-.78.23c0,.5.43.84.53,1.42,1,.36.6-2,1.53-1.85.11.58,0,1.15.5.92l-.11.16c.74-.89,1,1.1,1.19-.62l.18.83a1.62,1.62,0,0,1,.73-.83s0,0,0,0l0,0,.2-.11h.1l-.06,0,.49-.24V23a4.69,4.69,0,0,1,.5-.56.28.28,0,0,1,.2,0c0,.08-.06.15-.06.21a1.56,1.56,0,0,1,.59-.49,1.19,1.19,0,0,0,.29-.11l-.12.33a.91.91,0,0,1,.51-.43l-.37,1c.57.26.44-.82.81-.81a1.77,1.77,0,0,1,0,.85l1-1.38a.23.23,0,0,1,.11.29c.13-.21.48-.22.83-.26a3.81,3.81,0,0,0-.28.47c.83,0,.85-1,1.69-1.21a.77.77,0,0,1-.29-.14l1.22-1.94a.87.87,0,0,1-.22.17c-.26-.28-.35-.22-.1-.62-.24.24-.13.45-.44.6a1.37,1.37,0,0,1,.15-.74.29.29,0,0,0,.06-.17L38,18l-.07,0s0-.06,0-.09l.12,0L38,18l.57-.17a.79.79,0,0,0-.09-.23.05.05,0,0,0,0,0l0,0h0a5,5,0,0,0,.81-.73h.1a.07.07,0,0,1,0,.06l.12-.07h.32l-.05.07.11-.08.33,0,.14-.15h-.08c0-.34.27-.69.73-.78a4.71,4.71,0,0,0-.63.07l.09-.14,1.46-.21a1.05,1.05,0,0,1-.5.23l.1,0a.46.46,0,0,0-.26.15h-.15c.11.19-.81.36-.48.75l.33-.05c-.06.28-.11.58-.19.86-.11-.09-.48-.12-.24-.26-.15-.09-.5.12-.52.3l.06-.21c-.28.32-.61-.07-.43-.26h0l-.29.47-.73.21c.06.24.07.53.11.77l-.19.31a1.17,1.17,0,0,0,.19-.3,1.55,1.55,0,0,0,0,.21l.85-.31a.41.41,0,0,1-.09-.55l1.25-.36c-.14.45-.36.82-.86.84a1.7,1.7,0,0,0,1.08-.09.49.49,0,0,0,0,.27.38.38,0,0,0,0,.34.47.47,0,0,1-.29.26l-.46.06c0-.07,0-.21.12-.5-.42.07-1.28.21-1.37.7l.43.25c-.13,0-.28.05-.32.14,0-.1,0-.21-.29-.15,0,.06,0,.22-.16.28-.24-.4.52-.24.18-.57-.63.17-.25.52-.35.7,0-.06,0,0,.12,0,0,.14-.25.09-.18.25a.52.52,0,0,0,.27-.15c-.05.06,0,.11,0,.13a2.71,2.71,0,0,0-.4,1.21c.43-.18.49-.72.66-1.16a.94.94,0,0,0,.25,0,2.17,2.17,0,0,1,.85-.39c.46.37-.32.75.46,1.47l.55-1h-.37c-.09-.67.38-.59.66-.73s.73-.15,1.18-.3a1.85,1.85,0,0,1,1,.37c.09-.49-.21-.42-.46-.42.42-.07.16-1.32.87-.72.32.09-.11-.89-.59-.76h0c.42-.07.77-.38,1.26-.37l-.26-.27c.17-.16,0-.11-.1-.1L44.24,17s0,0,0,0c.5-.06.15-.7,1-.63,0,.11.17.35-.26.52l.49.11a2.25,2.25,0,0,1-.69.31c-.16.39-.06.58-.22.91.18-.13.08-.38.38-.44s0,.17,0,.29a.35.35,0,0,1,.47-.16,1.85,1.85,0,0,0-.82,1.37c.27.34.42-1.14.93-.05l.06-.83c.23-.32.81-.8,1-.05a5.36,5.36,0,0,0-.93,2.26.28.28,0,0,1-.12.33v0c-.22.14-.61.17-.78.41-.32-.09-.23-.58-.24-.75-1.16-.69-1.22,2-2.36,1.59-.17-.67-1-.61-.81-1-.61,0-.74.89-1,1.46-.22-.59-.92.05-.78-.68l-.3,1.14c-.44-.26-1.08.47-1.37-.2-.35.32.14,1.08-.49.89,0-.16-.08-.25,0-.24a.7.7,0,0,0-1.07.46c.43.1.13.17.63.18.08.42-.3,1.15-.94.8.47-1.22-.8-.85-.59-1.5-1.16.21-1.49,1.77-2.2,3-1.08.46-2.57.42-3.23,1.56h.12l-.38.73c-.3.08-.26-1.08-.66-.68-.07-1,.77-.39,1.09-1.2-1-.69.54-1.14-.18-1.74.13,2-1.68.77-2.15,2-.74,0,.13-.9-.24-.92l-.08.66c-.32-.09-.45-.26-.54-.67a2,2,0,0,0-2,1.43c.7-.64-.06,1,.73.76a1.76,1.76,0,0,1-1.11.88c.4-.41-.95-1.19.17-1.16-.38-.91-.48.32-1,.31a6.29,6.29,0,0,0,.47-1.23c-.39,1.48-2.42-.15-2.47.84a30.58,30.58,0,0,1-1.35,2.85c-.77-.52-1.35.13-2.09.1l0-.41c-.44-.09-1,.47-1.58.45l-.29-.67a4.37,4.37,0,0,1-1.68.78c.1.42.64.18.49.76.3-.08.54-.24.33-.65.3-.08.47.59.79.85l-1,.79a.22.22,0,0,1-.18-.13l.1.79c-.3.07-.44-.1-.46-.42-.59.47-.58,1.54-1.32,1.52.14-.74.23-1.23.71-1.38l-.79.23c.2-.83,1.6-1,1.09-2.12a11,11,0,0,0-2.39,2.9c-.61-.76-.95.47-1.71.28-.13-.17-.39-.34-.35-.75l.17-.08a3.75,3.75,0,0,0-2.4,1.83l-.61-.76c-1.41,0,.59,1.34-.73,2-.55-.84-1.78,0-2-.72-.24.16-.36.16-.26.74.25,0,.72-.31.59.43-.41.4-.74,0-1.1.13,0-.16.13-.74,0-.58-.82.64-2.52,1.09-3,2.89.29-.24.19-.82.7-.64.09.41-.16.41-.21.65.24.75.33-.65.91-.22l-.54,1.14.6.6L1,43.68c1.55.13,1.53-2.93,2.94-2.23-.13.29.1.45.19.63.28-.49.72-.61.83-1.18l.59-.14c.09.41.1,1.49-.5,1.64,2.12-.52,3.24-3,5.54-2.9.13.17-.23.33,0,.41a3.12,3.12,0,0,0,.56-.86c0,.17,0,.4-.15.46,1-.71,1.87.39,2.44-.42.15.5-.47.48-.33.65,1.18.11,1.37-1.61,2.46-1.91-.19.82.41.67.81,1,.74-.89,2.6-1.57,3.84-2.45.07,1.9,1.52-.37,2,1.13a.9.9,0,0,0,.6-1.05c-.1.33-.61,0-.63-.35.41-.24,1.07-.47,1-1.21l.72.6c-.1-.58-.09-1.33.21-1.4,1,1.27-.31-1,.83-.47a10.35,10.35,0,0,0-.13,1.65c.49,0,.35-.32.64-.56a2.19,2.19,0,0,1-.31,1.72l.69.27c.36-1.06,1.06-2.61,2.05-2.58,0,.57-.33.65.09,1.32.35-.32.64-1.47,1.28-1.12-.06.08,0,.17-.05.25.73-1.06.74,0,1.6-.12a2.46,2.46,0,0,1,0,.28l.38-.68c.51-1.09,1-.48,1.43.14l-1.79.63c-.42.36.39.44.14,1,.55-.15,1.43-.08,1.35-.66,0,.08,0,.25.12.29l.21-.56-.34-.06a.84.84,0,0,1,.44-.43,2,2,0,0,0,.59.57.75.75,0,0,1-.52.08c.07.13.28.34.12.47a5.55,5.55,0,0,1,.52-.2c.63.32,1.52-.6,1.92-.37a1.6,1.6,0,0,1-.26-.23,3,3,0,0,0,.53-.37c-.42-.12-.35-.24-.19-.4l.13.35a2.35,2.35,0,0,1,.54-.16,1.26,1.26,0,0,1,.2.42c.36.07.48-.23.61-.52a2.82,2.82,0,0,0,.55-.11c0,.09.09.12.27.05l-.08.09c.55-.49.64.51.84-.38l.09.41a1,1,0,0,1,.48-.42c.32.36.65-.09.75-.25l-.14,0c.7-.66.44-.22,1.35-.68l-.33.61c.38.1.33-.44.59-.45,0,.08.13.37-.08.5l1-1.06c.21-.38-.13-.28-.22-.44s.56-.29.67-.06c-.23.31-.49.59-.21.91l0,0h.08c.49-.11.58-.54,1.13-.69a.74.74,0,0,1-.45-.26c-.13-.45.46-.4.84-.55-.22-.1-.22-.24-.14-.41a2.49,2.49,0,0,0,.54.41A.43.43,0,0,1,44,32a.83.83,0,0,0,.31-.11,1.26,1.26,0,0,0-.24.51c.45-.17.37-.7.8-.91a.23.23,0,0,0,0,.14,1.23,1.23,0,0,1,0-.16l.13-.05c.8.17-.08.43.51.81l.42-.52H45.8c0-.46.58-.26.62-.58l-.24,1a.07.07,0,0,1,0-.09c-.42,0-.55.49-.76.79-.12-.28-.63.08-.51-.3l-.25.6c-.29-.11-.76.29-.93,0-.13.1-.11.25-.13.36h-.06a1.21,1.21,0,0,0-.1.14h-.08c0-.08,0-.12,0-.12a.6.6,0,0,0-.76.29c.29,0,.08.08.42.06a.5.5,0,0,1-.67.46c.37-.65-.51-.39-.35-.74-.8.17-1.09,1-1.64,1.64a5.18,5.18,0,0,1-.63.2c.08-.14.13-.25,0-.29-.47.51-1.75.12-1.68,1.22l-.16.22c-.21.06-.13-.53-.43-.31,0-.5.55-.24.8-.67-.68-.3.42-.61,0-.88,0,1-1.19.49-1.56,1.14-.51,0,.12-.47-.13-.46l-.08.34a.33.33,0,0,1-.34-.32,1.75,1.75,0,0,0-1.44.84c.51-.36-.08.51.47.35a1.42,1.42,0,0,1-.8.5c.29-.22-.6-.55.16-.59-.21-.45-.33.18-.67.2.12-.21.42-.61.38-.65-.34.78-1.65,0-1.73.56-.26.52-.72,1-1,1.52-.51-.22-.93.14-1.44.17l0-.21c-.29,0-.67.28-1.1.31L28.79,38a4.19,4.19,0,0,1-1.18.49c0,.2.42.06.3.36.21-.06.38-.15.25-.35.21-.06.3.27.51.39l-.76.46c-.07,0-.1,0-.11-.06l0,.4c-.21,0-.3,0-.3-.19-.42.27-.46.82-1,.84.13-.38.21-.64.55-.74l-.55.16c.17-.43,1.14-.61.84-1.14a8.15,8.15,0,0,0-1.77,1.61c-.38-.36-.67.29-1.18.23-.08-.08-.25-.15-.21-.36l.12,0a3.13,3.13,0,0,0-1.72,1.06l-.39-.36c-1,.09.35.65-.58,1-.34-.4-1.23.11-1.36-.26-.17.09-.25.09-.21.39.17,0,.51-.2.38.18-.29.23-.5,0-.76.13,0-.09.13-.39.05-.3-.59.37-1.78.69-2.2,1.63.22-.14.17-.43.51-.36,0,.21-.12.22-.17.34.13.37.26-.35.64-.16l-.42.61.38.27-1,1.36c1.06,0,1.18-1.58,2.11-1.29-.1.15.05.22.1.3.22-.26.53-.34.63-.64l.41-.1c0,.2,0,.75-.42.86,1.48-.38,2.36-1.73,3.92-1.77.09.08-.16.18,0,.21.17-.17.47-.4.42-.52,0,.08,0,.25-.12.3.71-.42,1.27.1,1.69-.35.08.25-.34.27-.26.35.81,0,1-.89,1.78-1.1-.17.43.25.32.5.47A24.28,24.28,0,0,1,31,40.9c0,.72.55.24,1,.23a8.57,8.57,0,0,0,.37,1.81L29,44.39c-.52.87.74,1.43.54,2.83.74-.21,2,.3,1.87-1.1a1,1,0,0,0,.26.62l.12-1.53-.54-.32a1.28,1.28,0,0,1,1.25-1.32c.08.28.16.57.23.86,0,.12.21.17.39.16-.19.74.08,1.61-1,1.15.15.42.55,1.12.34,1.43,1.25-.88,2.67-.45,3.75-2.3a1.32,1.32,0,0,1-.52-.59l.5.09c-.58-.27-.21-1.16,0-1.32s.54-.23.56.1l-.22.32c.3.18.47-.36.71-.57a1.35,1.35,0,0,1,.13.5c-.11.57-.5.51-.78.22.09.74.53,1.29.7,2.15,1.08.65.41-2.8,1.38-2.51.17.86.08,1.68.61,1.41l-.1.22c.67-1.2,1.15,1.74,1.16-.76l.28,1.24a1.72,1.72,0,0,1,.66-1.11l.05.05-.05-.05.2-.14h.1l-.06,0c.17-.11.34-.2.47-.3l0,.25a6.63,6.63,0,0,1,.45-.77.21.21,0,0,1,.21,0c0,.12,0,.21,0,.29a1.48,1.48,0,0,1,.56-.64,1,1,0,0,0,.29-.12l-.09.47a.84.84,0,0,1,.47-.56l-.27,1.43c.62.46.36-1.13.75-1.07a4,4,0,0,1,.14,1.24l.83-1.88a.42.42,0,0,1,.15.43c.11-.29.46-.26.82-.28a5.32,5.32,0,0,0-.23.66c.84,0,.77-1.32,1.61-1.55a.88.88,0,0,1-.31-.25l1-2.68a.64.64,0,0,1-.21.22c-.09-.14-.16-.22-.21-.29a4.56,4.56,0,0,1,.52-.18l-.1.25a1.57,1.57,0,0,0,.1-.26l.09,0a1.16,1.16,0,0,0,0,.18l.84-.34-.07-.1a1.69,1.69,0,0,0,.27-.12.32.32,0,0,0,0,.42,3.83,3.83,0,0,1,.58-.15,1.12,1.12,0,0,0,.65-.1,1,1,0,0,0,0,.39.81.81,0,0,0,.08.51.47.47,0,0,1-.27.34l-.47,0a1.38,1.38,0,0,1,.08-.72c-.43.05-1.3.14-1.34.85l.47.42c-.14,0-.28,0-.31.16,0-.15-.06-.32-.33-.26,0,.09.09.33-.12.39-.3-.61.5-.28.12-.8-.63.16-.21.72-.29,1,0-.09,0,0,.13,0,0,.2-.26.09-.17.34a.44.44,0,0,0,.27-.18.15.15,0,0,0,0,.2,4.44,4.44,0,0,0-.28,1.71c.42-.21.42-1,.56-1.61a.52.52,0,0,0,.25,0,1.63,1.63,0,0,1,.83-.46c.52.6-.25,1,.63,2.2l.46-1.35-.38-.07c-.16-1,.34-.8.6-1a9.67,9.67,0,0,0,1.19-.28,2,2,0,0,1,1.08.67c0-.71-.27-.64-.52-.68.43,0,0-1.91.82-.94.33.17-.21-1.31-.69-1.19h0c.42-.06.75-.47,1.25-.38l-.3-.43c.16-.22,0-.16-.11-.16l-.08-.11a.06.06,0,0,0,0,0c.51,0,.08-1,.93-.8,0,.16.21.53-.21.72l.51.22c-.46.32-.17.18-.67.37-.13.55,0,.84-.12,1.31.16-.18,0-.55.33-.61s0,.26,0,.42c.17-.33.32-.26.47-.17a2.5,2.5,0,0,0-.69,1.91c.32.53.31-1.62.94,0l0-1.2c.2-.44.75-1.07,1.08,0A8.58,8.58,0,0,0,56,42.27c0,.24,0,.38-.09.47v0c-.2.17-.6.16-.75.5-.34-.18-.3-.88-.33-1.13-1.27-1.16-1.05,2.69-2.26,2-.24-1-1.06-1-.94-1.59-.64-.1-.67,1.21-.88,2-.3-.88-1,0-.89-1.1l-.17,1.65c-.49-.45-1.07.53-1.44-.48-.32.42.26,1.59-.41,1.24,0-.24-.11-.37,0-.35-.36-.42-1-.28-1.06.54.46.19.16.26.67.35.13.62-.18,1.63-.88,1,.35-1.73-.91-1.34-.78-2.27-1.16.16-1.33,2.4-1.94,4.09-1.06.54-2.59.28-3.15,1.86l.13,0-.32,1c-.3.07-.38-1.61-.75-1.08-.18-1.46.75-.47,1-1.62-1.14-1.15.43-1.6-.38-2.57.36,2.92-1.64.92-2,2.65-.77-.12,0-1.3-.35-1.37v1c-.34-.18-.5-.44-.63-1.06-.85-.26-1.58.45-1.91,1.83.65-.85,0,1.44.84,1.21a1.58,1.58,0,0,1-1,1.14c.37-.54-1.11-1.86,0-1.67-.49-1.38-.46.41-1,.33a8.62,8.62,0,0,0,.35-1.74c-.24,2.11-2.5-.53-2.45.91-.21,1.4-.75,2.61-1.08,4-.85-.86-1.37,0-2.14-.12v-.59c-.46-.2-.93.56-1.57.45l-.38-1a3.12,3.12,0,0,1-1.64.92c.14.62.67.34.58,1.16.31-.06.53-.27.27-.9.3-.07.55.92.91,1.34l-1,1a.3.3,0,0,1-.19-.21l.18,1.16c-.3.08-.46-.19-.52-.67-.55.62-.42,2.19-1.19,2.06.06-1.06.1-1.77.58-1.93l-.78.23c.1-1.18,1.53-1.3.89-3A12.39,12.39,0,0,0,23.05,58c-.71-1.2-.93.55-1.73.18A1.93,1.93,0,0,1,20.87,57L21,56.9c-.94,0-1.73,1.14-2.27,2.36l-.71-1.19c-1.46-.12.75,2-.54,2.77-.66-1.3-1.84-.18-2.16-1.31-.23.2-.36.18-.19,1,.26,0,.71-.36.65.71-.37.53-.77-.13-1.12,0,0-.25.06-1.07,0-.84-.77.82-2.47,1.26-2.79,3.83.28-.32.11-1.18.65-.85.14.62-.12.58-.13.93.32,1.13.26-.91.91-.2l-.43,1.59.67.95-1,3.53c1.61.38,1.25-4.09,2.77-2.88-.09.4.16.66.27.93.24-.67.68-.79.73-1.61l.59-.13c.14.62.27,2.19-.34,2.33,2.13-.48,3-4,5.39-3.52.16.27-.19.45,0,.6a4.08,4.08,0,0,0,.47-1.19c0,.25,0,.58-.1.66.95-.92,2,.8,2.46-.31.22.75-.42.64-.26.9,1.23.33,1.24-2.17,2.33-2.47-.11,1.17.5,1,.94,1.59.67-1.2,2.51-2,3.69-3.09.28,2.79,1.53-.34,2.17,1.91.31-.07.68-.6.51-1.46-.06.47-.63-.11-.69-.6.4-.28,1.06-.53.86-1.64l.81,1c-.17-.86-.24-1.95.06-2,1.18,2-.43-1.5.81-.58a18.31,18.31,0,0,0,0,2.39c.51.09.32-.42.6-.73a4.1,4.1,0,0,1-.14,2.48l.75.48c.26-1.51.8-3.68,1.83-3.51,0,.84-.27.91.23,1.94.33-.42.5-2.06,1.2-1.47,0,.11,0,.25,0,.36.64-1.45.77.12,1.63,0,0,.12.05.28.06.42l.31-1c.6-2.28,1.5,1,2.32,1.58l-.09.22c.7,1.19,1.69-.43,2.19,0-.65-.71-.35-.78-1-2.07-.32.42.19,2.05-.6,1.68-.23-1.35.5-2.06.43-3.14.35-.19,1.1,1.85,1.32,2.6.88-.45,1.58.14,2.61-.64.18-1-.17-4,1.2-2.42l0,.28c0-.48.54.21.57-.42-.66-1.3.19-1-.52-2.23.53-.27,1.07,1.61,1.4,2.73-.06-2,1.33.7,1.92-.64,0,.85-.84,1.29-.24,2.11l.57-2.53-.48.16c.48-1.71,1.11-.06,1.73.41.23.54,0,.84-.27.88.27,0,.62-.35.85-.89a20.92,20.92,0,0,0,.9-2.81l.17.08a.74.74,0,0,1,0,.27.62.62,0,0,0,.15-.21l.51.18,0,.29a1.23,1.23,0,0,0,.12-.26l.52.16.13-.52-.13,0c-.3-1.48,0-2.74.67-2.75a3.69,3.69,0,0,0-1-.23l.05-.53c.79.11,1.54.2,2.23.28-.16.35-.35.64-.66.59,1,1.36,1.53-1.3,2.32.62C61.8,55,61.07,54.11,60.12,55c-.92-1.34.49-1.11.32-2l-.72-.24c.3.89-1.08.89-.28,2.81a8.37,8.37,0,0,0,4.11-.14l1.29,10.58a3.53,3.53,0,0,1,.09.71l-.09-.71c-.1-.43-.25,0-.45.39,0-.47-.12-1-.43-.9-.82-.61-.68,1.56-1.19,1.48l.1-.23c-.54-.33-1.07-.06-1.21.87-.77-1.68,1.16-.76.12-2.12.62.45,1-1,1.35-1.21a4,4,0,0,1-1.73-2.91c-1.07,1.49.91,3.85-.1,4.87l-.89-.15.19,2.06c-.48.16-.08-1.68-.79-1.32,0,1-.66.27-.66.92-.09-.46-.19-1-.59-.89,0,.25.25,1-.06,1.07-.66-1.9.68-.61-.09-2.28-.86.19-.15,1.82-.1,2.6,0-.07.08,0,.18,0,.13.62-.36.18-.14.93.16,0,.26-.2.35-.42a1.08,1.08,0,0,0,1,1.12c.36-1.14,1.68-1,2.44-1.51a.63.63,0,0,0,0,.6c1.14-.4,1.76.06,3-.82l-.18-1.45c1.14-.41-.38-4.12-.18-4.57.23-.19.24-1.15.63-.49v.6c.6-.73-.13-1.57.56-1.57.31-1-.51-.09-.38-1,.77.13-.23-2.9,1.14-2,.06.48.52,1.63-.07,2l.86.87c-.6.73-.2.44-.9.8,0,1.54.29,2.43.27,3.74.19-.44-.14-1.57.3-1.62.59.22.09.73.15,1.22.27-1.87,1.09,1.25,1.31-.5-.51-1.64-.38-1.62-1.06-2.56.29-.67,1.1.3,1.4,1.78l-.22-1.35c.17.3.52.22.62.55V62c-.55-.92-.92-1.34-1.34-.69,0-1-.83-2.17-.2-2.66.31-.07.22.75.33,1.13,1.32-1.45,2.09,1.77,3.14.64-.17.68-1.12,0-1.48,1.18.63,1.06.68-.6,1.06-.54a1.47,1.47,0,0,0,.39,1.62l0-.84c.22,0,.58-.26.7.12a1,1,0,0,0-.46-.68c.28-1.26,1.19-2.07,2.29-1.77.33,1.73-1.15,1.37-.14,2.48.33-.42.22-2.34,1.12-1.6-.06,1.06.55.93.69,1.54l.47-2.3a1.1,1.1,0,0,0,1.36-.61.42.42,0,0,1-.52.27c.16-2.24,1.35.34,2-.74l-.22.8c.72.23,1.06-.54,1.41-1.32l.27,1.24c-.33-1.73.65-2.4.77-3-1.25,1.58-1.63-1-2.79.73.14-1.88.47-2.3.69-4.06.26,0,.42.31.52.69a8.72,8.72,0,0,1,.09-2.37l.27.64c1.18.43.25-3.06,1.35-2.76.56,1.52-.34,2.33-.7,3.46.79,1.32-.8,1,.22,2.9l.06-1.06c.31-.07.47.79.3.88.32-.43.3-.07.26-.91,1.49-.59.32,2.08,2,2.35-.07.47-.5.52-.21,1.4l-.89-.15.27,1.24c1.05-.18,1.27-1.93,1.26-4.09-.64,1.45-.4-1.25-1-1.71,0-.66.28-.37.46,0,0-.38.39-.74.17-1.4.92,2.9,2.93,2.4,3.18,5.54.78.72,2.14-1.44,3.33-2l-.14.93c1.9,2.23.65-2.39,1.22-3.37-.41,1.24.88,1.1,1.36,1.9.36-1.14.45-2.91,1.32-3,.45,1.14,1,3.13,1.51,3.1L95.1,54c.56,0,1.05-1.14,1.58-.45l-.05.11c.74.48.33-1.38-.18-1.47l.39-.88.11.38c.57-1,.81-3.09,1.92-3.74,0,1.31,1.44,2,.46,2.7.16-.69-.46-1.15-.64-1.66-.45-.16-.49,1.26-.63,1.44a11.62,11.62,0,0,1,.58,3.32c.29-2.22,2.89-1,2.3-4.27,1-.07,2-1.21,3.27-.89a1.76,1.76,0,0,1-.27-.63l1.27,1.15-.15.34.86.86a1.28,1.28,0,0,1-.16,1.28c-.1.23-.33-.17-.23-.39-.42,1.24.67.35.51,1.63-.21-.15-.36.18-.48.16,1,.63.81-1.53,1.71.16.1-1.17.56-2.52,1.47-1.78-.09.82.71-.36.71,1.19.08-.82.94,0,.82-.93,0,.35-.32.42-.61.13.2-.44,0-1.31.41-1.24a1.23,1.23,0,0,1,.11.37c.27-.9-.56-3.07.23-3.29,1.91-1.24.46,3.29.9,3.84-.09-.73.69-1.55,1.26-1l0,.35c.15-.33.32-1,.71-.36-.15-1.21-.17-2.41-.21-3.25l.88-.45,0,.71a.92.92,0,0,1,.51-.51c.29.88,0,.7-.24,1.15.34.77.52.68.53-.27l-.13,0c.12-.58.68-2.16-.09-2.28.31-1,.91.75,1.15.19.22.75-.06,1.06.26,1.59.38.06.64.11.83-.34-.33-.17-.09-.73-.63-1.06.07-.46.47-.75.37-1.12-.1.21-.12.57-.48.15a.92.92,0,0,1,1.47-.23,2.53,2.53,0,0,1,0,.55c.31-1.5,1.33-1.41,1.38-3.07l-.25-.25C118.52,42.43,118.22,42.56,118,42.2ZM87.88,27.59l-.08.26a1,1,0,0,1,.38-.23c.13.28-.08.25-.25.43a6.06,6.06,0,0,0-.63-.23ZM77.93,7.7l-.1.19a1.21,1.21,0,0,1,.39-.2c.1.19-.1.19-.27.32-.21,0-.41-.08-.61-.1ZM76.59,8.8h0l0,.07Zm0,.09a.94.94,0,0,1,.33-.2L77,9C76.67,9.48,76.63,9.25,76.59,8.89ZM30.88,20a2.53,2.53,0,0,1,.64-.19Zm1.52-.45-.85.25c-.32-.09-.13-.15-.43-.39-.26.14-.09.49-.58.5,0-.32.55-.59.61-.85.26-.09.55.33.61.49a4.75,4.75,0,0,1,.62-.16A.41.41,0,0,0,32.4,19.59ZM34.16,19h0s0,0,0,0l-1.58.46-.12-.11a4.81,4.81,0,0,0,1.1-.31c.24-.29.31-1,1.07-.77v.07C34.39,18.58,34.08,18.72,34.16,19Zm1.16,1.49a.41.41,0,0,1-.2-.21c0-.38.37-.46.65-.33C35.63,20.16,35.47,20.35,35.32,20.52Zm0-1.94-.4.27-.17,0a.74.74,0,0,1,0-.56c.11,0,.23,0,.29-.11-.31-.24.23-.28-.12-.5.38-.13.55.28.65.52.14-.42.62-.14,1.08-.27C36.6,18.55,35.53,18.13,35.31,18.58Zm1.82-1a.65.65,0,0,1,.58,0A.53.53,0,0,1,37.13,17.61Zm.76.26a.93.93,0,0,0-.09-.22.58.58,0,0,0,.18,0C38,17.76,38,17.82,37.89,17.87ZM41,19.31a.57.57,0,0,0-.18,0,1.2,1.2,0,0,1,.32-.16.36.36,0,0,0,0,.09A.77.77,0,0,0,41,19.31Zm.07-3.06L41,16.4C41,16.34,41,16.29,41.05,16.25Zm.56,2.92.09-.06a.38.38,0,0,0-.15,0,1.8,1.8,0,0,0,0-.19l.26.19A.33.33,0,0,1,41.61,19.17Zm1.06-3.74,0,0a.46.46,0,0,1-.22,0Zm-.89.37h0c.43-.09.85-.45,1.11-.15a2.5,2.5,0,0,1-1.18.6A.39.39,0,0,1,41.78,15.8Zm.58,1.34a5.46,5.46,0,0,0-.52-.63,12,12,0,0,0,1.31-.3l.09.21A4.08,4.08,0,0,1,42.36,17.14Zm1.06-1.67a1.06,1.06,0,0,0-.2-.12l.21,0ZM63.78,66.59l.47.08C64.11,66.84,64,66.89,63.78,66.59Zm22-37.08a.47.47,0,0,1,.23-.32l-.16,1.48c.36-.18-.1-1.33.47-.75s.28,1.23.4,2.21c-.37-.42-1.17.16-.89-1.1L85.21,33a3.61,3.61,0,0,1,0-1.31l-.63.49,0-.24c-.39.89-1.17,1.11-1.33,2.4,1.24.92-.13,1.53.17,2.41-.38-.06-1.17-2.93-.71-4.29.42.91.63-.49,1-.67-.62-.46-.58.38-.93.56.08-.82-.73-.83-.87-1.45q0-.11,0-.24c.45,0,.57-.51.94-.17,0,.12,0,.18,0,.09.57,1.52.94-.56,1.48-.23.08.13,0,.35-.07.46.35-.18,1.14-.4.94-1.51l-.38.55a.42.42,0,0,1-.22,0c.17-.17.12-.47.38-.48a.2.2,0,0,1,0,.12c.25-.34-.13-1,.42-1.19C86.83,27.61,85.48,29.36,85.74,29.51Zm.33-.38v0l0,0Zm-5.29-2.07c-.47-.18-.17.6-.55.49l-.17-.49c-.34-.07-1.06-.15-1.39.29.42.22-.13.38,0,.67,0-.46.51-.28.55-.08a2.22,2.22,0,0,1-1.1.4l.59.13c-.12.3-.67,1-.67,1.05s-.05,0-.07,0a.48.48,0,0,1,.06-.18,1.23,1.23,0,0,1-.28.12.5.5,0,0,1-.43-.17l.3-.47.21.28L78,28.6c-.28-.08-.87-.21-1.06-.53a2.73,2.73,0,0,0,.8-.36c.76.51.89-.06.94-.82a6.38,6.38,0,0,0,.54-.66.24.24,0,0,1,0,.13,5.24,5.24,0,0,0,.71-.25.74.74,0,0,1,.28.21v0c.16.09.4-.24.7-.35.07-.2.26-.44.45-.26V26c.11.19.47.1.87,0,0,.09-.07.19-.11.3a.75.75,0,0,1-.28.44c.07-.05.17-.07.33,0l-.5,1c.38,0,.25-.77.71-.75a1.2,1.2,0,0,1-.2,1.22c-.43,0,0-.29-.3-.44-.17.68-.51-.39-.68.37-.38.15-.34-.23-.51-.39C81,27.6,80.32,27.3,80.78,27.06Zm-1.16,2.52c-.24.3-.45.87-.79.65a.83.83,0,0,0,.06-.43A4.61,4.61,0,0,0,79.62,29.58Zm-1.69.65V30A.16.16,0,0,1,77.93,30.23Zm-.31-.77h0ZM76.14,28c-.08.12-.23.22-.3.34s-.39.16-.57.08a8.47,8.47,0,0,0,.8-.5A.27.27,0,0,0,76.14,28ZM73,28.62a5.24,5.24,0,0,0-.57-1l.29-.12,0,.21.33-.44c.09.41.17.16.22.45.26.4.52.09.84-.16a2.18,2.18,0,0,1,.23,1,.37.37,0,0,0,.15,0,.43.43,0,0,0,0,.25c-.47.16-.17-.07-.55-.17-.09-.17,0-.34.08-.51Zm-.56,1.58c-.18-.41.2-.38.29-.72-.13.13-.25.34-.43.35v-.17l-.47.24c-.12.38.38-.06.47.18l-.25.35a2.58,2.58,0,0,1-.94.31l0-.24c-1.07-.67-1.4-.11-1.56.81a.21.21,0,0,0-.13.07c.08.33-.21.38-.13.8l-.42,0c-.07.57.34.17.57.17,0,.34-.06.69-.11,1-.17.06-.37.11-.45.23-.55-.34.21-.72.16-.84l-.5.28c.17-.35-.13-.54.12-.89-.3.23-.42-.14-.68.21.21-.73-.55-.35-.68-.72.34-.27,1.19.18,1.11.27,0-.12.42-.19.63-.07l.12-.64c-.29.06-.63.41-.63-.09l-.34.36a2.71,2.71,0,0,1,.51-1.26.67.67,0,0,0-.62,0,2,2,0,0,1,.71-1.74,4.21,4.21,0,0,1,.93-.07c-.37.37-.81.67-.84,1.16l-.06,0-.51.19.46-.07,0,.48,0-.06c.71-.41.21.62.93.12a1.1,1.1,0,0,0,0,.16c.18-.18.51-.23.71-.37a1.44,1.44,0,0,0,.52-.31.15.15,0,0,0,0,.08H71c-.07.21,0,.17,0,0s.09-.16.08-.24,0-.11,0-.16a1.11,1.11,0,0,0-.07.16.4.4,0,0,0-.13,0l.15-.22h0c.08,0,.16,0,.25-.15s0-.21,0-.39c.15-.31.34-.68.58-1.15v.08l.2-.08a.27.27,0,0,1-.23.14c.38.07.7.52.86.87l-.19.09c0,.45,1,.15.64.84-.06.11,0,.44-.11.63l-.31.07a.35.35,0,0,1,0-.08C72.75,30.37,72.67,30.22,72.43,30.2ZM70.2,32.63c-.14,0-.22,0-.26,0a1,1,0,0,0,0-.3A.3.3,0,0,1,70.2,32.63Zm-.35.25c0,.1,0,.2-.12.25Zm-2.45,1q0-.1-.06-.24c.32,0,.37-.24.29-.56.43.17.84.33.8.94a1.09,1.09,0,0,0,.77-.18A1.31,1.31,0,0,1,68.43,35c-.37-1.43-.64-.21-.91-.67A.4.4,0,0,0,67.4,33.93Zm-.34-.32a.87.87,0,0,1-.09.17s0,0-.08,0h0a.28.28,0,0,1-.3,0,2.36,2.36,0,0,0,.1-.38c-.13.14-.21.19-.26.17a3.2,3.2,0,0,0-.18-.82.2.2,0,0,1,.21.07c0-.13.32-.29.23-.51a1.07,1.07,0,0,0,.46.52c0,.11,0,.21,0,.32C66.79,33.21,67,33.42,67.06,33.61Zm-2.4.29.13-.39a.15.15,0,0,1,.14,0c-.54,1-.73.31-1-.29a.26.26,0,0,1,0,.09c.09-.26,0-.63.26-.85l.12.2c.76,0,.42-1.11,1.14-1.11a.45.45,0,0,1,0,.19,1,1,0,0,0-.51.78c-.1.11-.21.22-.3.33C65.18,33.28,64.13,33.32,64.66,33.9Zm-1.87-1.48-.51.32.2.33a.43.43,0,0,1-.21.23l-.13-.23-.18.39a.71.71,0,0,0-.34.27c-.68.21-.64-.68-1.19-.27l.3.28a3.68,3.68,0,0,1-.75.34l0-.42-.2.47-.37,0c-.17-.41.3,0,.38-.23l-.38-.36c.12-.05.29-.48.38-.06,0-.21.08-.59-.26-.32l.21-.39-.06-.07a.16.16,0,0,1,.13.12.42.42,0,0,0-.09-.19l.17-.09c.13.1.3.06.51.26l-.08.27h0l-.11.1a.55.55,0,0,0,.63-.16c-.21,0-.27-.05-.3-.16a1.58,1.58,0,0,0,.1-.55,3.33,3.33,0,0,0,.54-.23h.07c-.17.17-.23.32.18.62a1,1,0,0,0,.22-.4.46.46,0,0,1,.12.52c.18-.23.45-.13.59-.57-.33.52-.22-.8-.61-.19a2.23,2.23,0,0,1,.2-.41,1.39,1.39,0,0,1,.5.1c-.13.13,0,.29,0,.46a.43.43,0,0,0,.17-.3c.07.18.23.25.36.35l-.13.08a.76.76,0,0,0,.11-.08c-.09-.08-.51-.05-.42.19A.65.65,0,0,0,62.79,32.42ZM62,35.31a1,1,0,0,0,0,.25l-.23,0A.54.54,0,0,1,62,35.31Zm-4.75-1.55a1.65,1.65,0,0,1-.47.1v-.14l.48-.17h0v0c.89-.42.07-.89-1-1.47.59-.11,1.23-.14,1.85-.24l-.07-.1a2.38,2.38,0,0,0,.3.18c0,.13-.11.29-.18.46a1,1,0,0,0-.37.4.92.92,0,0,0,.14.14c-.13.3-.26.57-.33.72l-.32.13a.44.44,0,0,0,0-.2Zm-11,3.56a.53.53,0,0,0,.25,0s0,.07,0,.1h-.13s0,.12,0,.2a.47.47,0,0,1-.29.11A.35.35,0,0,1,46.24,37.32Zm.27-5-.1,0a.53.53,0,0,1,.24-.2A.28.28,0,0,0,46.51,32.29ZM47.62,37a.66.66,0,0,0,.19.09.15.15,0,0,1,0,.19h-.09Zm.24.31Zm-.94-.45c.22-.14.41,0,.6.08C47.35,37.08,47.13,37,46.92,36.82Zm.67-5.71a.83.83,0,0,0-.22.62l0-.58c-.18.48-.48.25-.65-.13A7.73,7.73,0,0,1,47.59,31.11Zm.48,0a.26.26,0,0,0-.32-.09.74.74,0,0,0-.26,0c.29-.06.16-.68.63-.41.21,0,0-.46-.38-.36a6.56,6.56,0,0,1,.88-.25l-.42-.32.34-.1-.07,0A13.48,13.48,0,0,0,50,29.46h0c-.46.57-1.44.66-1.6,1.43.17.15.33-.61.63-.08l.08-.42c.17-.18.59-.46.72-.09a3,3,0,0,0-.73,1.2.17.17,0,0,1-.1.18h0a2.7,2.7,0,0,0-.55.24l-.15-.17c0-.07,0-.15,0-.19a.5.5,0,0,0-.26,0C48,31.39,47.9,31.24,48.07,31.09Zm.54-2.19a.12.12,0,0,1,.09.11Zm2.6,5.83a.38.38,0,0,0-.26.19H50.8c0,.08,0,.15-.08.22a1.66,1.66,0,0,1-.39-.26.71.71,0,0,1,.34-.16,2.87,2.87,0,0,0-.5,0l-.1-.1,0-.09,1.49-.12a.77.77,0,0,1-.5.28Zm-2,1.19h.18a.67.67,0,0,1,0,.2,6.72,6.72,0,0,0-.54.48l.47-.21a.82.82,0,0,1-.27.33l-.65,0A3,3,0,0,0,49,35.9h.11a.25.25,0,0,1,0,.1A.48.48,0,0,0,49.23,35.92Zm1.57-.54,0,.16a.15.15,0,0,1,0-.11A.12.12,0,0,1,50.8,35.38Zm-.26,1.71a.1.1,0,0,0,0,0l.07-.11a1.28,1.28,0,0,0-.27,0s0-.09.06-.15c-.14-.13-.38,0-.47.22h0l0-.16a.21.21,0,0,1-.39,0c.29-.14.59-.22.1-.68a.47.47,0,0,0,.47-.06c.16.06.38.06.32-.17h-.1l.07-.07s0,0,0,.07l.35,0c0,.36-.06.75-.1,1.11Zm2-.57,0-.26c-.07-.28-.23,0-.43.26l0-.06c0-.29-.07-.56-.31-.48l-.11-.16a7.25,7.25,0,0,0,.86-.18l0,.62c0,.06,0,.14,0,.25Zm-.11-1.65a2,2,0,0,1-1,.55.74.74,0,0,1,.05-.65h0c.35-.06.67-.37.93-.25Zm-.32-.5.26,0,0,0A.34.34,0,0,1,52.14,34.37Zm-.69-3.29-.28.17c-.18-.19-.58.1-.51-.39-.09-.16,0-.3.25-.27,0,0,0,.09,0,.13a.8.8,0,0,0-.34-.74c.25,0,.3,0,.42-.19l-.25,0a1.68,1.68,0,0,0,.49-.55l.37-.09a1.15,1.15,0,0,1-.31.73c.42.23.5-.11.63-.41a.53.53,0,0,1,.12-.1v0Zm.09-4.43h.35l0,.74A1.79,1.79,0,0,1,51.54,26.65Zm4.55-3.9c.85-.11,1.78-.09,2.68-.19l-.21-.41c.31.09.39-.57.67-.07a29.07,29.07,0,0,1-1,4,1.84,1.84,0,0,1-1.44.27l.13-.19C59.44,25.46,58,24.28,56.09,22.75Zm.3-9.56a.23.23,0,0,1,.2,0c0-.09.34-.23.26-.37a.73.73,0,0,0,.42.32,1.87,1.87,0,0,1-.07.22c-.34,0-.15.14-.11.26a.45.45,0,0,1-.1.13l-.08,0h0a.37.37,0,0,1-.28,0l.12-.27a.66.66,0,0,1-.27.15A1.54,1.54,0,0,0,56.39,13.19Zm2.78.48a1.33,1.33,0,0,1-.83.79c-.27-1-.62-.08-.85-.38,0-.09,0-.16-.09-.23a.75.75,0,0,1,0-.16c.32,0,.38-.2.32-.42.42.09.81.16.72.58A1.59,1.59,0,0,0,59.17,13.67Zm3.16,10.48c.28-.4.9-.38,1.07-.63a1.42,1.42,0,0,1,1,1.46,2.46,2.46,0,0,0-.44.16,1.51,1.51,0,0,1,.38.05,1.62,1.62,0,0,0-.06.17.51.51,0,0,0,.07-.17.3.3,0,0,1,.25.29c.43,0,.25-.49.47-.67a3,3,0,0,1-.59.15c.24-.25.57-.15.7-.89-.42,1-.42-1.75-1-.44-.51-1.09.49-.89,1-.55-.17.24.1.58.12.91a1,1,0,0,0-.47-1.49l.56-.82h-.07l.65-.46c.31.88.47,1.48.22,1.31l.53.51-.53.4c.42.67.68-.06,1-.13.44.4-.52.85-.69,2l-.17-.16a.51.51,0,0,1-.32.6.81.81,0,0,1-.48-.28c.1-.2.23-.31.47-.13L65.89,25c.29-.14.63.18.72-.25l-.34.19,0-.21c-.25.1-.5.51-.79.35-.14.31-.24.77-.82.83v-.09c-.2.81-1.14-.14-1.35.25,0,.75.68.13.93.36-.16.35-.5,0-.21.39a.39.39,0,0,1-.11.09c-.36-.09-.56-.51-.78-.74a1.19,1.19,0,0,1,.21-.4l-.43-.22a.8.8,0,0,0,.15-.17C62.41,25.31,62.62,24.82,62.33,24.15Zm24.88-3.32ZM86.67,29l0,.1V29Zm-1.91.85-.3.44a.69.69,0,0,1-.13-.5c.06,0,.1.09.06.26C84.45,29.94,84.61,29.92,84.76,29.89Zm-14.16-.8a.83.83,0,0,1,.27.12s0,0,0,.06l-.86,0,.08.37c-.16-.06-.29-.16-.28-.3l0,0a1.21,1.21,0,0,0,0-.18l-.19-.09.24-.63a1.49,1.49,0,0,0,.63-.1c-.1-.1-.06-.2,0-.3a.71.71,0,0,0,.46.22,1.15,1.15,0,0,1,.14.17c-.12.17-.31.3-.29.58ZM66.53,30.2a.41.41,0,0,0-.16-.1.66.66,0,0,0,.3-.21Zm-3.88,1.31a1,1,0,0,0,0,.23.55.55,0,0,0-.39-.26l0,0A.5.5,0,0,1,62.65,31.51Zm-2.2,1s0,0,0,0,0,0,0,0Zm-5.51-2.14-.56.37a1,1,0,0,0-.07-.29C54.42,30.3,54.6,30.24,54.94,30.37Zm-.13-1.69,0,0,.21.28a2.06,2.06,0,0,0,.65-.22s0,.07,0,.11C55.58,29.15,54.83,29.37,54.81,28.68Zm.89-.09s-.08.05-.15,0a1,1,0,0,1,.38-.65A2.05,2.05,0,0,0,55.7,28.59ZM62,26.21a1.69,1.69,0,0,0,.67.13l.31.39c-.12.08-.23.16-.34.22,0-.21,0-.5-.3-.25.07,0,5.64-16.5,5.68-16.32-.45.3-6.24,17-7,17l0-.05a2.44,2.44,0,0,0,.06-.31c.16.05.43.24.49,0l-.27-.34h0l.46.27c.22-.14-.12-.21-.17-.33.26-.18.43.06.64,0C62.13,26.46,62,26.38,62,26.21Zm7.5-1.6c-.18.26-.39.52-.58.8a1.74,1.74,0,0,0-.7.67c.76.21-.21.56-.08.84-.26,0-.56-.93-.14-1.45.21.28.47-.24.72-.34h-.1a.8.8,0,0,0,.23-.39c.14-.11.28-.21.42-.18s0,.13-.09.17Zm-1.53.2.21.42h.12a1,1,0,0,1-.26.18c.07-.17-.07-.22-.21-.27A1,1,0,0,1,67.93,24.81ZM61,26.28l-.08-.1a.3.3,0,0,0,.09-.1C61.1,26.14,61.07,26.21,61,26.28Zm6.17-.15c0,.18,0,.38,0,.59l-.2.06C67,26.59,67.11,26.38,67.18,26.13Zm-2.94.72h0a1,1,0,0,1,.24-.65l.18.21A.91.91,0,0,0,64.24,26.85Zm-4.09-1.19a.58.58,0,0,0-.17-.44l.48-.29C60.48,25.34,60.69,25.74,60.15,25.66ZM68,28.35c-.38.18-.22.18-.06.23a2.22,2.22,0,0,1-.39-.1C67.64,28.31,67.74,28.2,68,28.35Zm5.13-4.47a.45.45,0,0,0-.35.18,1.47,1.47,0,0,1-.28-.14C72.72,23.72,72.93,23.39,73.15,23.88Zm-1.54,1.24a.53.53,0,0,0,0-.12.54.54,0,0,0,0,.11Zm3.24-.75c.12-.19.33-.6.54-.62,0,.25-.14.42-.15.73-.1.14-.13.31,0,.38C74.77,24.8,75,24.66,74.85,24.37Zm-.16,2.94,0,.2a1.24,1.24,0,0,1-.1-.2ZM74.3,25h0s0,0,0,0Zm.55,2.71a1.74,1.74,0,0,1-.19-.22c.15-.32.6-.32,1-.3C75.45,27.42,75,27.41,74.85,27.74Zm.53-4.19c-.24,0-.2.38-.45.23l0-.13-.07.11,0-.41a2.73,2.73,0,0,1,.45.19Zm-1.44.73c0-.17.42-.23.73-.11l0,.25c-.17.35-.3.06-.55.16l.09.31a.42.42,0,0,1-.14.06l-.37-.18a.18.18,0,0,1,0,.1c-.12,0-.24,0-.37.24h0a1.06,1.06,0,0,0-.08-.72.94.94,0,0,1,.23,0,1.07,1.07,0,0,1-.27-.68A1.59,1.59,0,0,1,73.94,24.28Zm-4.31,0-.32.24c-.17-.07.12-.38-.13-.53a.73.73,0,0,1-.23.16c.1-.52.21-1,.72-1A1.24,1.24,0,0,1,69.63,24.31Zm-7.42,1.13a5.11,5.11,0,0,1-.77.23c0-.32-.06-.56-.38-.23l.26-.74a.93.93,0,0,0-.14-.22l.33-.21c.22.23.49.13.88.71C62.45,25.18,62.32,25.31,62.21,25.44ZM56.15,26.7a1.35,1.35,0,0,1,0,.33,1,1,0,0,0-.31.52.72.72,0,0,1-.22.17c-.06-.59-.25-.8-.47-.87a1,1,0,0,0,0-.43l.58-.08C56,26.38,56.14,26.43,56.15,26.7Zm-.5,1c-.26.16-.33,0-.44-.18C55.26,27.36,55.37,27.34,55.65,27.73Zm-.3,7c.13-.05.27.06.4.17a.61.61,0,0,0-.08.28l-.06.06-.3-.36A.83.83,0,0,0,55.35,34.74Zm1.29-1h0a1.17,1.17,0,0,1,.05.11h-.16Zm2.15-.62s0,0,0,0l0,0Zm.05.08.15.12a.33.33,0,0,1-.12,0A.26.26,0,0,0,58.84,33.2Zm.25-.24h0c0,.14,0,.27,0,.33ZM63,32.27a.38.38,0,0,1,.17.25l.2-.52c.14,0,.27-.2.4-.23.27.18-.36.45-.55,1A.88.88,0,0,0,63,33Zm2.06-1.8a.5.5,0,0,0,.12-.13.35.35,0,0,1-.13.11,2.85,2.85,0,0,1-.25-.33c.34-.57.94.09,1.47,0t-.06.18c0,.08.12.08.21.06l-.06.11c.69.1,1.08-.46,1.47-1l.18.81c-.47.24-.78.93-1.33.65l.08-.08A1.3,1.3,0,0,1,65.1,30.47ZM69,30ZM82,30.09c-.09.09-.21,0-.13-.11l0,0a2,2,0,0,1,.05-.53l.32.13A.39.39,0,0,1,82,30.09Zm.09.42a.26.26,0,0,0-.21,0l0-.32C82,30.26,82.19,30.23,82.07,30.51ZM87,28.91l.13.42c-.31.7-.38.35-.45-.18C86.72,29.06,86.83,28.92,87,28.91Zm-1.13-6a.27.27,0,0,1-.28-.12,9.7,9.7,0,0,1,.7-1.14h.12a2.2,2.2,0,0,1,.17-.25l-.14.05A3.35,3.35,0,0,1,87,21l.22.15a1.13,1.13,0,0,0,.14.36c-.13.13-.24.22-.09.47l-.06,0a1.34,1.34,0,0,1-.26-.34c-.27,0-.43.33-.54.64-.1,0-.18,0-.28.17a.25.25,0,0,0-.09-.16C85.58,22.53,86.25,22.41,85.83,22.93Zm6.41-2.33a.86.86,0,0,1-.07-.21l.22.13,0,.08Zm1,.62a.85.85,0,0,0,0-.17l.06,0Zm-4.16-6.53a.57.57,0,0,1,0,.25,5.44,5.44,0,0,0,1.43-.62l-.09.49c.26.59.61-.22,1.11-.42.07-.39.32-.82.62-.44l0,.5c.18.39.7.27,1.27.12,0,.17-.08.35-.12.57a1.4,1.4,0,0,1-.35.84c.1-.1.24-.12.48.07l-.61,2c.56.1.27-1.48,1-1.38A2.88,2.88,0,0,1,93.62,19c-.62,0-.1-.58-.49-.92-.16,1.32-.8-.85-.95.63-.53.23-.52-.51-.79-.85.53-.23-.5-.92.15-1.32-.71-.43-.17,1.16-.74.89l-.31-1c-.51-.18-1.58-.46-2,.36.65.51-.14.74.09,1.32-.13-.91.7-.47.79-.06-.34.32-1.3.79-1.56.62l.89.35c-.15.58-.86,1.8-.85,2-.33-.29-.67-.17-.94-.42a.25.25,0,0,1-.06-.14h-.06l0-.05.37-.9.34.59.13-.9A3.25,3.25,0,0,1,86,18C86.8,17.81,88,16.93,89.07,14.69Zm-10.3,1.77v.16l1-.47,0,.41.44-.81c.18.83.27.34.37.92.71,1.34,1.17-1,2.12-.52l0,.42c.25-.91,1.52-.37,2.26-.35v.16a1,1,0,0,0,0,1.28,6.41,6.41,0,0,0-.4.61c-.25,0-.83.47-1.06-.28.48-.15.41-.23.07-.65-.31.81-1.31.62-1,1.78-.66.23-.25-.17-.83-.44a1.38,1.38,0,0,1,.06-1l-1.84,1c.12.91,1.45.45,1,1.76-.1.33.24,1.66-.51,1.47a.34.34,0,0,1,.05-.3c-.27.25-.39,0-.76-.13-.3-.84.26-.74.33-1.39-.16.24-.32.64-.57.64l0-.34-.65.4c-.14.74.55-.07.71.43l-.33.65c-.47.32-1.78.94-2.54-.15-.7-.27-.2.65-.22,1.23-.08.35-.23.39-.4.36,0-.22-.09-.44.1-.57-.27,0-.54-.23-.78,0a1.76,1.76,0,0,0-.34.26v0c-.43.07-.87.72-.94-.27l-.45.65A5.58,5.58,0,0,1,74.15,21c-1.37-.92-1.62,1.87-2.77,1l.11-.16c-1.7.8-2.49-.63-3.28-2.27l.68-.53.24.75c1.29,0,1.69-2.26,3.05-2.22,0,.74-.58.47-.43.81.79-.06.23-2,1.21-1.2-1,.55.75.18,0,1.15,1.07-1.54,2.88-.33,3.71-.8-.34-.43.19-.82.18-1,.25,0,.28.51.1.58a1.89,1.89,0,0,1,.86,1.55l-.91.35c.35.13.64.6.91.64h0c.12,0,.23-.05.35-.27a1.15,1.15,0,0,0,0-.77C78.24,18.05,78.47,17.34,78.77,16.46ZM74.28,9.55c.06,0,.09.06,0,.18a.61.61,0,0,1,.38-.17l-.33.33C74.27,9.82,74.27,9.7,74.28,9.55Zm0,.33c.07.09,0,.25-.1.33.36-.15,1.14-.38,1-1.12l-.41.41h-.22c.18-.14.16-.34.41-.37a.08.08,0,0,1,0,.08c.27-.26,0-.7.49-.86,1.41-.55,0,.78.21.86,0-.07.11-.16.25-.24l-.26,1c.36-.16,0-.91.51-.56s.18.83.23,1.49c-.33-.26-1.16.21-.79-.68l-.71,1.38a1.74,1.74,0,0,1,.13-.91l-.66.39V11c-.45.65-1.23.87-1.48,1.78,1.15.52-.24,1.06,0,1.65-.37,0-.93-1.93-.38-2.9.35.58.65-.4,1-.55-.57-.27-.6.31-1,.46.15-.57-.65-.51-.74-.93,0,0,0-.09,0-.16.43,0,.6-.4.93-.2,0,.09,0,.13.05.06C73.23,11.18,73.74,9.7,74.25,9.88Zm1.79-1v0Zm-4.23,1a1.25,1.25,0,0,1,.09-.37l.3.07c.07.1-.07.26-.24.34s-.2,0-.11-.07Zm.21.32a.38.38,0,0,0-.21,0v-.22C71.93,10.06,72.16,10,72,10.22ZM69.49,7.51a.14.14,0,0,1,0,.1,7.36,7.36,0,0,0,1-.36l-.1.18c.13.19.43-.13.78-.25.08-.15.28-.33.46-.22l0,.18c.1.12.45,0,.85-.08a2,2,0,0,0-.12.21A.83.83,0,0,1,72,7.6a.41.41,0,0,1,.32,0l-.57.76c.37,0,.3-.55.76-.58a.74.74,0,0,1-.29.86c-.42.06,0-.19-.26-.28-.22.49-.48-.22-.69.32-.38.13-.32-.13-.47-.23.38-.13-.26-.28.21-.48-.44-.09-.21.43-.57.39L70.31,8a2.08,2.08,0,0,0-1.39.32c.4.12-.15.27,0,.46,0-.31.52-.24.55-.1a3.07,3.07,0,0,1-1.11.37l.57,0c-.14.22-.72.72-.73.78h-.07a.54.54,0,0,1,.07-.13l-.29.11a.58.58,0,0,1-.4-.08l.33-.36.18.18.16-.33c-.27,0-.84-.07-1-.28A5.36,5.36,0,0,0,69.49,7.51Zm.2,2.28c-.26.23-.51.64-.82.51A.42.42,0,0,0,69,10,6,6,0,0,0,69.69,9.79ZM68,10.38c0-.05,0-.1,0-.15S68.06,10.32,68,10.38Zm-.24-.5h0ZM67,11.37a1.26,1.26,0,0,1,.56-.38v0a.35.35,0,0,0,.33-.15,4.08,4.08,0,0,0,.81-.37c-.14.56-.3,1.24-1,1.27v-.17c-.2,1.56-1.7-.46-2,.28.1,1.48,1,.35,1.41.86-.2.66-.74,0-.26.74-.61.89-.75-1.1-1.16,0l.45.26c-.14.74-.71.47-.85,1.21.19,1,.49-.15,1.12,0l-.07.83.91-1.13c0-1.32-.27-1.25.21-2.31a6,6,0,0,1,.94,1.93,1.58,1.58,0,0,1,1.38-1.45l-.22.49c.62,0,.7-.64.86-1.05a.7.7,0,0,0,.21.42,1.39,1.39,0,0,0,.12-1.81l-.1.33-.54-.68c.22,1.54-1,1-1.44,1.8.23-.77.25-2.25,1-1.48l-.24-.76c.42-.23,1,.45,1-.38l-.48.32-.07-.36a5.52,5.52,0,0,1,1.37-.35s-.12-.08-.11-.13l.15,0,0,0c0,.39.09.74.11,1.07l-.28.14h.29c.07,1.07,0,2,.13,3.35a9.56,9.56,0,0,1-3.11.49,6.36,6.36,0,0,1,.19,1c-.4-.34-.86.14-1-.69-.12.91-.86,1.8-.5,2.55l-.11.09A2.57,2.57,0,0,0,64.56,16c-.21,0-.11.6.12,1.37A1.32,1.32,0,0,0,64,17.1c.07-.4.06-.9.35-1l-1.65.17,0-.41-.5.71c.31-.31.9-.23,1,.62-.56.81-1.17.05-1.52,1.28a10.94,10.94,0,0,1-.6-2.58s.06,0,.08.06a3.93,3.93,0,0,1,.64-2.19c-1.43-.12-1,.31-2.21.27a.75.75,0,0,1,0-.49,11.85,11.85,0,0,1,1.3-.56l-.19.25c.87.27.76-.4,1-.81l.08,0c.06.09.41.06.65.09a3.84,3.84,0,0,0-.38,2c.93.11.23-1.23.87-1.79l.71.6c.3-.24-.21-.42-.29-.67.35-.32.63.19.93.11-.13-.17-.39-.34-.41-.67.65.51,1-.05,1.8,1a1.75,1.75,0,0,1,0-1.56l.1,0,0,0c.45,0,.37-.39,0-.35L66,11l0,.08c.3-.2.56-.48.9-.74a.6.6,0,0,1,.19.06,2.39,2.39,0,0,1-.21.22A1,1,0,0,1,67,11.37Zm-7.23,1.72.13-.18A.29.29,0,0,1,59.75,13.09Zm.23-.33a.58.58,0,0,0,.07-.21.17.17,0,0,1,.18.16A.35.35,0,0,0,60,12.76ZM55.52,11l.1.25c.87-.14,1.33-1,2.24-1.08-.07.26-.43.22-.36.33.54-.1.32-.73.91-.55-.72.29.5,0-.12.42.85-.65,2-.39,2.57-.64-.2-.12.19-.31.2-.37.17,0,.15.15,0,.2.35,0,.46.25.45.47l-.64.21c.23,0,.38.15.56.14h0a.45.45,0,0,0,.26-.13c.09-.12.06-.15,0-.27.17-.23.38-.5.66-.84v0l.68-.25,0,.14.36-.33c0,.28.15.1.17.3.37.41.87-.46,1.48-.39L65,8.8c.24-.35,1.06-.28,1.55-.34v.06c-.27.19-.29.36-.12.45-.09.09-.24.17-.32.26s-.6.25-.7,0c.34-.1.3-.12.11-.24-.28.32-.94.35-.81.73-.47.15-.16,0-.53-.08-.07-.1,0-.23.12-.35l-1.33.54c0,.31.94,0,.56.52-.06.09,0,.31-.15.45l-.3.08s0-.05.05-.06c-.2.11-.26,0-.5,0-.14-.27.23-.29.33-.53a1.17,1.17,0,0,1-.44.29l0-.12-.48.2c-.14.28.38-.07.45.09l-.27.26a3.9,3.9,0,0,1-.94.29v-.16c-1-.37-1.37,0-1.59.7a.27.27,0,0,0-.14.05c.06.22-.23.29-.18.57l-.41,0c-.11.4.32.08.54.07,0,.24-.11.48-.18.71a1.41,1.41,0,0,0-.46.2c-.51-.19.26-.52.23-.6l-.52.24c.19-.25-.09-.36.18-.62-.3.18-.4-.07-.67.2.25-.52-.52-.19-.62-.44.35-.21,1.15,0,1.06.1,0-.09.43-.17.63-.11l.16-.45c-.29.06-.64.34-.61,0l-.36.28a2.2,2.2,0,0,1,.59-.92c-.85-.19-1.24.82-1.95.63l.09-.07c-1.22.45-1.63,0-2-.49Zm-1.11,2.14.11.13c.74,0,.48-.8,1.19-.86a.19.19,0,0,1,0,.12.94.94,0,0,0-.56.59,2.6,2.6,0,0,0-.31.25c.39.23-.64.35-.16.7l.15-.27a.16.16,0,0,1,.14,0c-.6.76-.74.27-1-.11,0,0,0,0,.05.05C54.2,13.56,54.18,13.3,54.41,13.13ZM49.92,14.5l-.35-.21c.13,0,.32-.36.38-.08,0-.14.12-.42-.23-.2l.23-.29a.16.16,0,0,0-.08-.06l.25-.11c.13.06.32,0,.53.17,0,.08-.14.16-.23.23a.78.78,0,0,0,.64-.17c-.42.06-.24-.14-.38-.35.22-.17.64-.22.77-.32.37,0,.71.19.53.46.19-.17.45-.12.62-.44-.37.39-.15-.58-.61-.06-.25-.34.4-.37.73-.29-.14.1,0,.19,0,.31.39-.25.12-.48-.2-.49l.44-.34h0L53.4,12c.14.28.2.48,0,.44l.32.13-.39.2c.23.2.46-.09.67-.14.26.1-.38.34-.61.73a1.46,1.46,0,0,0-.27.17l.09-.5-.14.07.11-.06c-.08,0-.49,0-.43.17L53,13.2l-.53.27.18.21a.62.62,0,0,1-.23.18l-.11-.15-.2.28a1,1,0,0,0-.36.22c-.67.2-.57-.41-1.14-.08l.27.16a4.23,4.23,0,0,1-.76.3v-.28l-.24.34-.36,0C49.39,14.42,49.82,14.68,49.92,14.5Zm2,.77a.47.47,0,0,0,0,.17l-.23.05A.66.66,0,0,1,52,15.27Zm-2.61-1.38c0,.14.08.26-.27.29A.12.12,0,0,0,49,14Zm-2.78-.36c.58-.12,1.21-.2,1.82-.32l-.11-.13c.21,0,.32-.24.46-.09a10.17,10.17,0,0,1-1,1.5,2.66,2.66,0,0,1-1,.24l.1-.08C48.62,14.17,47.77,13.89,46.58,13.53Zm1.19,6c-.15-.33,0-.57.34-.48.06.08,0,.16.07.25a2.09,2.09,0,0,0-.59-1.5c.37,0,.44.09.59-.32h-.37a2.2,2.2,0,0,0,.62-.92c.15.18.12-.07.39-.08l-.24.35c.25,0,.37-.39.29-.44l-.43.13a1.8,1.8,0,0,0,.08-.21,2.22,2.22,0,0,1,.47-.2,2.55,2.55,0,0,1-.36,1.64c.66.51.73-.14.88-.72a2.3,2.3,0,0,1,.2-.22l.16-.68A.59.59,0,0,1,50.3,16c-.15.28.27.17.3.3l.56-.64a2.34,2.34,0,0,0,.82-.23c.1.27.53.31.55.66V15.2a.38.38,0,0,0,.15,0,.94.94,0,0,0,.47-.14l-.23.23a1.59,1.59,0,0,0,.39-.09c-.24.33-.07.8-.21,1.13l.52-.52.35.59c.61-.15,1.1-.13,1.29-1-.32-.25-.26.74-.59.32a1.88,1.88,0,0,1,.27-1,.8.8,0,0,0,.4-.3h-.13l.16-.19L55.8,14c0,.09.16.15.51.11h0c-.1.12-.38.18-.28.37l-.58.07,0,.21-.34.14.07.09.28-.19v0a1.74,1.74,0,0,0,.67-.32c.08.41-.13.76.55.85a21.36,21.36,0,0,0-.2,2.48,1.33,1.33,0,0,1-1.27.37V18c-.37,0-.92,1-1.16.22-.16.24-.69.64,0,.91l-.88.71c-.16-1.41-1.15-1.43-.44-2.82,0,0-.35.3-.86.71v-.14a1,1,0,0,0,0-.26c.12,0,.18-.08.26.17.11-1.07-.45-1.17-1-1.1l.06.81c-.56-.31-1-.92-1.54-.42L49,20.07l-.38.3C48.29,20,47.73,20.49,47.77,19.52Zm3,7.15s0,0,0,0a.37.37,0,0,1-.33,0ZM46.88,16.49s0,.08,0,.12a1.71,1.71,0,0,1-.23-.13Zm-1-1.14c0-.22-.1-.27-.25-.28a.23.23,0,0,0,0-.15l.4-.09c.12,0,.22,0,.21.1.05.33-.41.48-.49.8l-.05,0-.27-.22C45.58,15.37,45.59,15.13,45.89,15.35Zm-.14,2.26c-.08-.21-.08-.24-.37-.37a.49.49,0,0,1,.69.13Zm.37-.27V17.2a.25.25,0,0,0,.13,0Zm-.4-.26c.11-.24-.32-.44.15-.64.21-.06.06.16.1.24a1.71,1.71,0,0,1,.56-.18l.18.18a2.09,2.09,0,0,1-.26.36A.65.65,0,0,0,45.72,17.08Zm2.57,10.05a4.76,4.76,0,0,0-.94-.07l.08-.37H49.6a.85.85,0,0,1-.69.47c.92.85,1.59-1,2.23.23-.68,1.3-1.27,1-2.1,1.47a.66.66,0,0,0-.48,0c-.38-.63.72-.65.63-1.18l-.69-.1c.2.5-.74.67-.64,1.48a.35.35,0,0,0-.43,0l0,.06h0C47.25,28.09,47.61,27.19,48.29,27.13ZM46.9,29.4l.5.07.12-.28.16.3-.28,0,0,.11a.31.31,0,0,0,.08.13l-.37.22c0-.08-.2-.17-.31-.27v-.07l0,.05c-.08-.09-.14-.18-.08-.28l.17,0-.05.2A1.33,1.33,0,0,0,46.9,29.4Zm-4.1,2.15s0,0,0,0l0-.05Zm.14-.74a.53.53,0,0,1,.17-.14A.27.27,0,0,1,42.94,30.81Zm-3.46,1v.05l-1.09.32C38.55,31.66,38.82,31.32,39.48,31.83Zm-4.75,1.79c.17.24.26.24.3.53h-.24a2.81,2.81,0,0,0-.31-.57.59.59,0,0,0-.11.19.78.78,0,0,0-.23-.13L34,33.7a2.62,2.62,0,0,0,.4-1.11c.18-.07.41.21.62.58l-.05,0,.05,0,.15.28Zm.51,0h0Zm4.2-.13a.69.69,0,0,0,.15-.07v.06A.42.42,0,0,1,39.44,33.46Zm.82-1.8a.31.31,0,0,1-.13-.1.23.23,0,0,0,0,.14h0s0,0,0,0c-.55-.84.26-.73-.35-1.49.44-.19.78.61,1,1.32Zm2.26,1,.42-1C43.2,31.89,42.79,32.34,42.52,32.65Zm2.35-1.3.05,0v0l-.13.06Zm1.31-.16c-.3-.28-.93.22-.56-.35a3.94,3.94,0,0,0-.54.14,6.86,6.86,0,0,0,1-1.74l.16,0a.42.42,0,0,1,0,.18.71.71,0,0,0,.15-.15h.1c-.5.24-.29,1.29-1.13,1.37a1.66,1.66,0,0,0,.84-.13C45.84,31,46.13,30.81,46.18,31.19Zm.21-.31.07,0,0,.15A.81.81,0,0,0,46.39,30.88Zm.57,1.6h0Zm-5.89,6.44a.9.9,0,0,0-.14-.19c-.25.18,0,.71-.55.65a.65.65,0,0,1,.06-.3l0,0,.34-.48-.3.3c.16-.25.39-.47.42-.72.11,0,.24.06.35.21A4.25,4.25,0,0,1,41.07,38.92Zm-2.47.73a2.4,2.4,0,0,1,.08-.59c.54-.67.88.28,1.36.42C39.59,39.45,39,39.66,38.6,39.65Zm-.7-.31a.65.65,0,0,0,.41,0s0,.1,0,.14l.09-.12.09.59C37.62,40.32,37.75,39.84,37.9,39.34Zm2.84.22h0Zm-6.47-.32a1,1,0,0,1-.28.12C34,39.27,34.08,39.2,34.27,39.24Zm1.78,3a2.54,2.54,0,0,0-.13-.39l-.37.59a.38.38,0,0,1-.13,0l0-.28-.2.1c-.06-.08-.13-.16-.2-.27-.49.37-.39.82-.54,1.41a2.32,2.32,0,0,0-.66-1l-.49.21c-.21-.58,0-1.46.53-1.28.1.58-.33.48.07,1,.13-.74.35-.32.05-1.16a2.77,2.77,0,0,0,.29-1c.24,0,.21-.18.4-.31.12.21-.09.68-.3.9l.47.1c.29-.56.84-1.39,1.51-1.42,0,.29-.25.34,0,.66.25-.18.5-.78.93-.63,0,0,0,.07,0,.1a.61.61,0,0,1-.1.18c.62-.47.66.17.76.75l-.28.09v-.15a1.23,1.23,0,0,0-.26.22l-1.94.59a8.8,8.8,0,0,1,1.14.63C36.37,41.94,36.21,42.1,36.05,42.23Zm9.32-1.39a1.07,1.07,0,0,1-.23-.33c0-.56.33-.63.64-.4C45.65,40.36,45.52,40.6,45.37,40.84ZM45.15,38l-.38.35h0l.34-1.49a2.28,2.28,0,0,1,.32.69c.06-.3.21-.33.41-.31a2.67,2.67,0,0,0,.07.47C45.57,37.71,45.24,37.68,45.15,38Zm2.54.93h0l0,0Zm.25-1.54.28-.08,0,.8C47.92,38.21,48,37.67,47.94,37.39Zm3.13,2.41a.77.77,0,0,0-.19-.08,1.11,1.11,0,0,1,.32-.18,1.21,1.21,0,0,0,0,.14A.57.57,0,0,0,51.07,39.8Zm.64-.12.09-.09a.86.86,0,0,0-.16,0c0-.09,0-.18-.07-.29a3.05,3.05,0,0,0,.29.31A.21.21,0,0,1,51.71,39.68Zm1.37-3.81v0Zm.09-1.37L53,34.29l.22,0Zm2.63,3.42a.8.8,0,0,0-.42-.58c.21-.22.57-.07.73.28A2.91,2.91,0,0,1,55.8,37.92Zm.36-.35,0-.19a.29.29,0,0,0,.14,0Zm.3-.38a.49.49,0,0,0-.74,0c.08-.34-.39-.7.08-.93.21-.06.08.24.13.37a1.09,1.09,0,0,1,.55-.2,1.61,1.61,0,0,1,.21.3A2,2,0,0,1,56.46,37.19Zm.41-.58-.25-.21a.62.62,0,0,1,.23,0C56.86,36.5,56.86,36.56,56.87,36.61Zm5.05,15.25a.32.32,0,0,1-.34-.08l.39,0ZM63.25,53a3.77,3.77,0,0,1-.49-1.13l.36,0Zm4.26-.46c.31,1.48-.35,1.73-.25,3.06-.07.46-.85.69-.92-.39.67.35-.18-3,.79-1.18-.13-.93-.35-1.26-.59-1.39a2.22,2.22,0,0,0,0-.63l.59,0A.59.59,0,0,1,67.51,52.55Zm-3-12.66c-.15.34-.65.85.1,1.33l-.83.94c-.31-2.09-1.33-2.25-.76-4.18,0,.05-.32.39-.8.92a1.49,1.49,0,0,1,0-.21,1.68,1.68,0,0,0,0-.38c.13,0,.18-.08.28.29,0-1.55-.59-1.77-1.15-1.74l.15,1.19c-.62-.52-1.13-1.47-1.63-.8l-.42,4.69-.36.39c-.35-.62-.86.06-.93-1.35-.18-.51,0-.84.3-.66.07.13,0,.24.11.37a4.62,4.62,0,0,0-.78-2.27c.38.06.46.19.58-.38L57.91,38a2.67,2.67,0,0,0,.54-1.26c.17.28.11-.09.39-.06l-.21.47c.26,0,.34-.52.25-.6l-.42.14c0-.1,0-.2,0-.3a1.89,1.89,0,0,1,.47-.24,4.8,4.8,0,0,1-.19,2.36c.73.83.74-.12.82-.94a1.62,1.62,0,0,1,.19-.29l.09-1a.42.42,0,0,1,.43-.07c-.12.38.3.28.34.48l.51-.86a1.6,1.6,0,0,0,.82-.24c.14.41.58.52.64,1l-.1-1.33a.29.29,0,0,0,.16,0,.56.56,0,0,0,.46-.14l-.21.31a1,1,0,0,0,.39-.08c-.21.45,0,1.16-.09,1.62l.48-.69.42.91c.61-.14,1.12-.06,1.23-1.23-.36-.42-.19,1-.58.38A3.24,3.24,0,0,1,65,35a.69.69,0,0,0,.37-.4l-.12,0,.14-.25.41-.45c0,.13.18.24.53.22h0c-.09.16-.37.23-.25.51l-.59,0,.06.3-.33.17.08.14.27-.24v0a1.19,1.19,0,0,0,.65-.38c.13.61,0,1.1.66,1.32,0,1.19,0,3.21.06,3.59-.32.42-.85.69-1.26.38l0-.24C65.26,39.66,64.8,41,64.47,39.89Zm5.13,12a1.31,1.31,0,0,1-1.46.21l.12-.26c2.5-.63.93-2.54-1.25-5,.87-.06,1.84.1,2.75.08l-.27-.64c.34.17.35-.78.69,0A51.9,51.9,0,0,1,69.6,51.85Zm1.92-.3a1.33,1.33,0,0,0-.22-.67l.46-.36C71.82,51.12,72.09,51.73,71.52,51.55ZM78,52c-.13.83-.92.22-1.1-.35.28,1.61-.89,1.14-1.07,2.13-1,.32-1.2-2.22-1.9-1.26l.55.92c-.68.6-1,.92-1.92.64-.41-1.26.46.19.5-.51l-.71-1.19c.17-.1.28-1.27.56,0-.14-.62-.08-1.69-.5-1l.18-1a2.12,2.12,0,0,0-.17-.34l.32-.27c.25.37.52.25,1,1.16.11.37-.11.57-.22.79.5.44.77.13.92-.2-.64-.11-.47-.8-.85-1.81.25-.56.89-.45,1-.79a2.69,2.69,0,0,1,1.17,2.42c.2-.59.65-.18.71-1.39-.33,1.38-.63-2.61-1-.76-.64-1.66.41-1.25,1-.68-.15.34.17.87.23,1.35A1.88,1.88,0,0,0,76,47.53l.49-1.11-.08,0,.63-.59c.41,1.33.64,2.23.36,1.95l.6.81-.5.52c.5,1,.69,0,1-.07C79.06,49.7,78,50.24,78,52Zm-.44-11.86c-.69-1.23-1.5-2.12-2.58-2.11-.2,0,0,.86.28,2-.3-.3-.57-.56-.79-.55,0-.58,0-1.32.25-1.47l-1.68,0v-.6l-.43,1c.28-.41.9-.23,1.06,1-.5,1.11-1.2-.08-1.43,1.67a25,25,0,0,1-.91-3.84.13.13,0,0,1,.1.09,6.8,6.8,0,0,1,.41-3.11c-1.48-.36-1,.32-2.24.11a1.58,1.58,0,0,1-.06-.73,10.18,10.18,0,0,1,1.27-.65l-.17.35c.93.51.75-.48.94-1l.08,0c.07.15.43.14.68.22a7.13,7.13,0,0,0-.17,2.91c1,.28.1-1.77.69-2.51l.81,1c.27-.31-.27-.64-.37-1,.32-.43.66.34,1,.28a2.46,2.46,0,0,1-.5-1c.73.83,1.07.06,2,1.75a3.64,3.64,0,0,1-.17-2.27.25.25,0,0,1,.11,0l0,0c.47.1.34-.52,0-.5l.34-.36L76,31c.28-.25.52-.63.84-1a.75.75,0,0,1,.2.11,2,2,0,0,1-.19.31A1.91,1.91,0,0,1,77,31.54a1,1,0,0,1,.53-.48v0a.27.27,0,0,0,.32-.19,2.54,2.54,0,0,0,.8-.43c-.09.81-.18,1.77-.92,1.73l0-.25c0,2.26-1.8-.89-2,.15.27,2.19,1.08.65,1.55,1.45-.13.93-.76-.13-.18,1-.54,1.23-.9-1.7-1.2-.07l.49.43c0,1.07-.67.6-.73,1.67.3,1.48.48-.16,1.15.18l0,1.2.81-1.53c-.11-1.93-.41-1.86,0-3.34a12.66,12.66,0,0,1,1.17,2.93c0-1.19.53-1.82,1.27-1.94l-.17.7c.64.1.65-.85.77-1.43a1.38,1.38,0,0,0,.26.64c.45-.4.4-1.84-.07-2.64l-.07.47-.63-1.06c.4,2.28-.95,1.3-1.29,2.45.16-1.1,0-3.26.84-2l-.32-1.13c.4-.29,1,.77,1-.43l-.45.4-.12-.54a4.1,4.1,0,0,1,1.37-.33S81,29.06,81,29l.17.07,0,0c.1.57.17,1.08.24,1.58l-.27.16.29,0c.19,1.56.25,2.93.49,4.91a6.44,6.44,0,0,1-3.15.31,11.2,11.2,0,0,1,.31,1.48c-.45-.55-.87.1-1.14-1.14,0,1.31-.7,2.51-.25,3.65Zm18.39,1A1.91,1.91,0,0,0,96.09,43c-.09.3-.28.52-.35.85-.25,0-.8.58-1.13-.55.49-.16.41-.29,0-.94-.23,1.14-1.28.73-.82,2.48-.66.25-.29-.29-.9-.75a2.72,2.72,0,0,1-.05-1.44l-1.79,1.26c.23,1.34,1.54.85,1.27,2.71-.07.46.42,2.45-.37,2.08a.56.56,0,0,1,0-.43c-.25.33-.41-.13-.8-.29-.4-1.26.19-1,.19-2-.14.33-.26.9-.52.86l-.06-.49-.63.5c0,1.06.57,0,.78.72l-.26.91A1.56,1.56,0,0,1,88.05,48c-.75-.48-.14.93-.1,1.77-.11,1.17-.77-.13-1,.43.24,1-.19,1,.09,2.28l-.64-.11c.11,1.92.76.13,1.11.9.69,1.54-.3.66.13,1.57.4-.29.23-1.15.38-1.49s.46.2.6.82c-.88-.51-.08,1.42-.72,1.31l-.11-.37c.28,1.23-.72.71-.89,1.4-1-1.24.07-2,0-2.4l-.68.61c.14-.93-.38-1.61-.12-2.52-.37.53-.7-.6-1,.31.07-2-1-1.23-1.29-2.36.4-.6,1.68.8,1.78,1.19,0-.31.61-.29.94.1l0-1.8c-.43,0-.82.94-1-.52l-.39.9a10,10,0,0,1,.34-3.45C83.92,45,84,49.06,82.69,47.68l.1-.22c-1.67.95-2.63-1.24-3.63-3.75l.65-.68.32,1.12c1.33.1,1.5-3.08,2.91-2.85.07,1.08-.55.62-.36,1.13.81,0,0-2.86,1.12-1.6-1,.67.79.37.07,1.68.94-2.11,2.93-.11,3.74-.69-.4-.67.11-1.18.08-1.42.25,0,.34.77.16.86a3.84,3.84,0,0,1,1.05,2.37L88,44c.38.23.73,1,1,1h0c.12,0,.23,0,.33-.35a2.32,2.32,0,0,0-.13-1.13c.12-.83.28-1.84.49-3.09l0,.24.93-.56v.59L91,39.64c.28,1.24.32.53.49,1.39.87,2.06,1.1-1.24,2.13-.48v.6c.16-1.29,1.52-.34,2.29-.22Zm8.77.62-.41,2.8c.59.21.12-2.13.84-1.89.3,1.48.52,2.23.11,3.47-.64-.11-.17-.86-.61-1.41,0,1.91-.92-1.34-.91.8-.53.27-.6-.81-.91-1.34.53-.27-.61-1.41,0-1.91-.78-.72,0,1.67-.67,1.21l-.43-1.5c-.55-.33-1.68-.88-2,.25.73.84-.06,1.07.24,1.95-.23-1.35.68-.6.81,0-.32.42-1.25,1-1.54.69l1,.64c-.09.82-.7,2.51-.67,2.75-.44-.55-.84-.26-1.19-1L98.63,46l.43.91,0-1.31a4.82,4.82,0,0,1-1.81-2c.86-.13,1.94-1.26,2.85-4.39a.89.89,0,0,1,0,.35,3.58,3.58,0,0,0,1.42-.71l0,.7c.33.89.6-.24,1.09-.46,0-.57.24-1.17.6-.57l.09.73c.23.6.75.5,1.32.35q0,.34-.06.81a2.12,2.12,0,0,1-.27,1.18C104.34,41.49,104.48,41.49,104.75,41.79Z"/><polygon class="cls-4" points="78.77 36.06 78.77 36.06 78.77 36.06 78.77 36.06"/><path class="cls-4" d="M116.61,32.32c.25,1-.7.36-.2,1.39C116.48,33.25,116.91,33.2,116.61,32.32Z"/><path class="cls-4" d="M117.18,33.84l-.46.4.42.31C117.11,34.3,117,33.93,117.18,33.84Z"/><path class="cls-4" d="M119.26,41.21c.09-.81.16-1.28.59-1.33.73,2.39-.52.87-.17,3.19.81,0,.55-2.17,1.12-2.55C120.25,39.59,118.85,39.36,119.26,41.21Z"/><polygon class="cls-4" points="119.57 44.25 119.65 44.38 119.94 43.71 119.87 43.58 119.57 44.25"/><path class="cls-4" d="M105.1,26.12c.12,0,.33.17.4-.29C105.28,25.08,105.19,25.9,105.1,26.12Z"/><path class="cls-4" d="M22.12,48.26l-3.06,1.63A27.9,27.9,0,0,0,22.12,48.26Z"/><path class="cls-4" d="M96,33.78c.7-1,.78-2.37,1.58-3-1.52-1.21-1,2.81-2.31,1.52Z"/><path class="cls-4" d="M94.93,30.51c.5-.51-.05-1.44.51-1.46l-.61-1.41C95.31,29,94.56,29.5,94.93,30.51Z"/><polygon class="cls-4" points="104.25 51 104.4 50.67 104.34 50.19 104.25 51"/><polygon class="cls-4" points="91.18 30.01 91.2 29.66 90.66 29.33 91.18 30.01"/><polygon class="cls-4" points="105.19 53.55 105.22 52.84 104.72 53.35 105.19 53.55"/><path class="cls-4" d="M99.46,46.64l.24-.56C99.66,46.19,99,45.74,99.46,46.64Z"/><polygon class="cls-4" points="88.16 30.94 88.45 30.27 88.38 30.14 88.08 30.81 88.16 30.94"/><path class="cls-4" d="M97.75,52.67c.34-.24.18-.65,0-1.08C98,52.29,97.1,51.92,97.75,52.67Z"/><path class="cls-4" d="M90.63,45.53a.92.92,0,0,0,.13-.21C90.71,45.34,90.66,45.39,90.63,45.53Z"/><path class="cls-4" d="M90.76,45.32c.19,0,.47.32.53,0C90.94,44.85,90.9,45.06,90.76,45.32Z"/><path class="cls-4" d="M88.7,46.17l.19,0c0,.59,0,.49.07,0,.17-.09.08-.43,0-.68s0-.29,0-.45c0,.15,0,.3-.05.43C88.68,45.58,88.52,45.68,88.7,46.17Z"/><path class="cls-4" d="M78,29.31a1,1,0,0,0,.22-.13A.26.26,0,0,0,78,29.31Z"/><polygon class="cls-4" points="93.41 56 93.38 54.81 93.31 56.22 93.41 56"/><path class="cls-4" d="M81.77,45.74c.18.5.51.08.71.23C82.23,45.93,81.67,44.41,81.77,45.74Z"/><path class="cls-4" d="M74.48,33.68A2,2,0,0,1,75,35C75.08,34.5,75,32.93,74.48,33.68Z"/><polygon class="cls-4" points="80.75 46.16 81.05 45.5 80.6 45.9 80.75 46.16"/><path class="cls-4" d="M84.37,54.74c-1.32-.77.42,1.42-.4,1.48.53.21,1.06,1.44,1.11,1.86C85.32,56.93,83.75,55.84,84.37,54.74Z"/><path class="cls-4" d="M75.8,51.26a1.61,1.61,0,0,0-.07.39A1.78,1.78,0,0,0,75.8,51.26Z"/><path class="cls-4" d="M82,56c-.24,1.15-1.46,1.42-1,2.92.46.21.83-.33.87-1l-.2-.15Z"/><path class="cls-4" d="M76.9,50.53c.26,0,.44-.05.58-.38C77.33,49.89,76.69,49.78,76.9,50.53Z"/><path class="cls-4" d="M72,61c.45,1.15.18-.09.64.1l-.16,1.29c.39.07.34-1.38.18-1.64Z"/><path class="cls-4" d="M48,41.7a.83.83,0,0,0-.32,0A.31.31,0,0,0,48,41.7Z"/><path class="cls-4" d="M34.92,41.32l.48-.15A.48.48,0,0,0,34.92,41.32Z"/><polygon class="cls-4" points="53.62 62.29 53.99 61.75 53.81 61.85 53.62 62.29"/><path class="cls-4" d="M51.37,60.25c-.48.16-.34-.18-.79.23C51,61.13,51.27,60.47,51.37,60.25Z"/><polygon class="cls-4" points="52.71 68.69 53.01 68.03 52.63 68.56 52.71 68.69"/><path class="cls-4" d="M32.48,47.17l-.21.14A.36.36,0,0,0,32.48,47.17Z"/><path class="cls-4" d="M22.65,49.53l0-.15C22.62,49.47,22.63,49.53,22.65,49.53Z"/><path class="cls-4" d="M22.62,49.38c0-.33.25-1,.5-.6l0,.84.28-1.86-1,.43Z"/><path class="cls-4" d="M23.74,49.24c.25,1,.72.24.82,0L24,46.53a2.76,2.76,0,0,0,.38,2.57C24,49.88,23.74,47.69,23.74,49.24Z"/><polygon class="cls-4" points="28.12 46.15 28.1 46.76 28.51 46.81 28.12 46.15"/><path class="cls-4" d="M28.1,46.76l-.4,0a9.32,9.32,0,0,0,.37,1.1Z"/><path class="cls-4" d="M26.63,46.59a1.41,1.41,0,0,0-.59-.07Z"/><path class="cls-4" d="M27.14,46.82l-.06-.18-.45,0A3.32,3.32,0,0,1,27.14,46.82Z"/><path class="cls-4" d="M26.63,45.19l.45,1.45.62.07C27.41,45.76,27.1,44.77,26.63,45.19Z"/><polygon class="cls-4" points="49.25 67.52 48.95 68.19 49.03 68.32 49.33 67.66 49.25 67.52"/><path class="cls-4" d="M46.47,67.93a1.2,1.2,0,0,0,.13-.61A2.55,2.55,0,0,0,46.47,67.93Z"/><path class="cls-4" d="M46.2,70.72a17.8,17.8,0,0,0,.27-2.79c-.46.72-2-.25-2.36,1.6,0,1.66.7,3.7,1.23,5.93.18.51,1.3.46,1-1-.73-.83.38-1.48-.64-1.65-.3-.88-.14-2.17.4-1.84.17.86-.3.66.18,1.46C46.33,71.33,46.6,72,46.2,70.72Z"/><path class="cls-4" d="M47.64,76.43c.26,0,.31-.06.41-.28C47.83,75.4,47.82,76.35,47.64,76.43Z"/><path class="cls-4" d="M38.39,61.13c0,.33-.3.84-.08,1.37l.54-.58C38.69,61.91,38.55,61.54,38.39,61.13Z"/><path class="cls-4" d="M39.09,61.67l-.24.25C38.93,61.93,39,61.86,39.09,61.67Z"/><path class="cls-4" d="M38.31,61l.08.18A.3.3,0,0,0,38.31,61Z"/><path class="cls-4" d="M24.54,46.51c.12,0,.33.18.43,0C24.83,45.85,24.63,46.29,24.54,46.51Z"/><path class="cls-4" d="M14.56,51.41c.15.27.23.4.36.42Z"/><path class="cls-4" d="M15,69.61a1.91,1.91,0,0,1,0,.32A1.35,1.35,0,0,0,15,69.61Z"/><path class="cls-4" d="M14.28,70.67l0-.24L14,71c.32-.16,1-.26,1.05-1.06C15,70.49,14.28,69.84,14.28,70.67Z"/><path class="cls-4" d="M84,2.57c.17-.08.36,0,.31.13.32-.3.38-.07.34-.47.19-.25.5-.06.27.17L85.52,2,85.1,2c0-.35.66-.08.7-.49l-.72.23,0-.11a.87.87,0,0,1-.6.19c0-.06,0-.14.1-.19-.88.22-.1.62-.81.93A.36.36,0,0,1,84,2.57Z"/><path class="cls-4" d="M83.05,2l-.21.49-.54,0c0,.14-.32.35,0,.4a.57.57,0,0,1,.22-.11c0,.31-.65.34-.43.59.39-.19.46-.14.66-.45a1.8,1.8,0,0,1,.86,0c.1-.08.08-.27.21-.34l-.09,0-.12-.45c-.1.13-.22.12-.35.16l.48-.69c-.29-.36-.83.05-1.1-.06C83,1.9,82.41,1.86,83.05,2Z"/><path class="cls-4" d="M9.94,25.36a.65.65,0,0,0-.15.18C10,25.45,10,25.4,9.94,25.36Z"/><path class="cls-4" d="M39.71,13.76l0,0-.1.18h0Z"/><path class="cls-4" d="M43.23,11.09l-.57.45c.05-.15-.25,0-.15-.21,0,0-.26.14-.18.19l.13,0c-.25.46,0,.54-.51,1,.4.12.5-.12.65-.33.06,0,.11-.07.15-.1l.42-.66Z"/><path class="cls-4" d="M18.22,20.82V21C18.24,20.88,18.35,20.79,18.22,20.82Z"/><path class="cls-4" d="M39.58,17.1l.15-.25c-.19.13-.42.25-.68.45Z"/><path class="cls-4" d="M28.5,20.22l-.09.08A.12.12,0,0,0,28.5,20.22Z"/><path class="cls-4" d="M56.16,7.83l.22-.17A.52.52,0,0,0,56.16,7.83Z"/><path class="cls-4" d="M76.88,3.75h0l0,0Z"/><path class="cls-4" d="M64.11,6.72a.49.49,0,0,0,.16.06S64.19,6.72,64.11,6.72Z"/><path class="cls-4" d="M56.12,7.86h0l0,0Z"/><path class="cls-4" d="M45.08,11.53l-.22.13A.6.6,0,0,0,45.08,11.53Z"/><path class="cls-4" d="M80.71,4.13h0v0Z"/><path class="cls-4" d="M67.62,6.5c.08,0,.24.08.19.17C67.91,6.55,67.84,6.32,67.62,6.5Z"/><path class="cls-4" d="M80.24,7.21A.66.66,0,0,1,80.33,7C80.26,7.11,80.2,7.19,80.24,7.21Z"/><path class="cls-4" d="M66.94,10.6a.18.18,0,0,0-.09,0C66.87,10.62,66.9,10.62,66.94,10.6Z"/><path class="cls-4" d="M81.61,2.41l-.07.33c-.44-.15-.63.1-1,.18l.87-.08c.44.13.2.25-.1.39.08,0,.15,0,.18,0,0-.12.84-.59.08-.44,0-.34.44-.29.62-.42-.16,0,0-.23,0-.34-.09.07-.18.2-.35.22s.11-.3.32-.3c-.28-.11.24-.34-.13-.38a3,3,0,0,0-1.55,1.19A2.47,2.47,0,0,1,81.61,2.41Z"/><path class="cls-4" d="M81.52,5.91h0l0,0Z"/><path class="cls-4" d="M47.3,10.53l0,0S47.26,10.53,47.3,10.53Z"/><path class="cls-4" d="M56.69,13.3l-.1-.08S56.61,13.28,56.69,13.3Z"/><path class="cls-4" d="M59,11.14l-.05,0h0Z"/><path class="cls-4" d="M59.9,11.1a.49.49,0,0,0,0,.11c.29-.21.91-.24.91-.57-.11,0-.71,0-.66-.18-.2.13-.58,0-.69.1.4.06.1.24-.12.41-.25,0,0-.25-.22-.26l-.51.18.46-.08-.07.33a.08.08,0,0,1,0,0C59.73,10.75,59.16,11.5,59.9,11.1Z"/><path class="cls-4" d="M59.86,11.21a.32.32,0,0,0-.1.1A.13.13,0,0,0,59.86,11.21Z"/><path class="cls-4" d="M63.1,10.82l.12-.09S63.14,10.78,63.1,10.82Z"/><path class="cls-4" d="M40.59,16.71l-.42,0,0,0C40.16,16.88,40.65,16.93,40.59,16.71Z"/><path class="cls-4" d="M71.29,7.14l-.15,0s0,0,0,0S71.25,7.18,71.29,7.14Z"/><path class="cls-4" d="M60.11,10.46a.28.28,0,0,0,.11-.15A.31.31,0,0,0,60.11,10.46Z"/><path class="cls-4" d="M72,7.61a.85.85,0,0,1-.54.06c.07,0,.19.11.22.2S71.87,7.69,72,7.61Z"/><path class="cls-4" d="M81,4.09c.1-.12.39-.19.29-.37C81.3,3.94,80.73,3.89,81,4.09Z"/><path class="cls-4" d="M81.45,4l-.34.16.24,0C81.36,4.16,81.33,4.08,81.45,4Z"/><path class="cls-4" d="M82.07,5.64a.74.74,0,0,1,.54-.41c.24.51-.44.28-.45.82.54-.09.59-.61,1-.78C82.91,5.1,82,5.22,82.07,5.64Z"/><polygon class="cls-4" points="82 6.39 82.27 6.18 82.23 6.16 81.96 6.36 82 6.39"/><path class="cls-4" d="M74.49,3.46c-.07-.17-.21,0-.3.12A.37.37,0,0,0,74.49,3.46Z"/><path class="cls-4" d="M14.21,20.27c.63-.22,1.23-.41,2.21-.79Z"/><path class="cls-4" d="M66.94,6.38l.34.27c.56-.33.76-.69,1.36-.94C67.75,5.59,67.7,6.54,66.94,6.38Z"/><path class="cls-4" d="M66.94,6c.39-.19.11-.35.49-.43l-.26-.28C67.35,5.53,66.79,5.74,66.94,6Z"/><polygon class="cls-4" points="71.16 9.76 71.01 9.97 71.15 9.87 71.16 9.76"/><polygon class="cls-4" points="64.53 6.2 64.2 6.18 64.48 6.29 64.53 6.2"/><path class="cls-4" d="M68.49,9.3s-.4,0-.22.17Z"/><polygon class="cls-4" points="62.37 6.9 62.63 6.7 62.6 6.67 62.33 6.88 62.37 6.9"/><path class="cls-4" d="M66.5,11.2c.3-.12.14-.22.07-.32C66.8,11.08,66.1,11.08,66.5,11.2Z"/><path class="cls-4" d="M63,10.14c-.18-.07-.23,0-.35.07C62.73,10.18,62.88,10.23,63,10.14Z"/><path class="cls-4" d="M61.13,10.68h.12c-.09.15,0,.12,0,0s.1-.12.1-.17l.05-.12-.08.12C61.18,10.54,61.06,10.58,61.13,10.68Z"/><path class="cls-4" d="M55.26,8.26c.42,0,.28-.36.51-.51-.46.17-.57.1-1.11.33C55.11,8.05,55.23,8.06,55.26,8.26Z"/><path class="cls-4" d="M54.28,8.15c0-.19-.37,0-.29,0S54.2,8.11,54.28,8.15Z"/><path class="cls-4" d="M56.54,11.44c.07.1.33,0,.46,0C56.83,11.43,56.62,11.11,56.54,11.44Z"/><path class="cls-4" d="M52.94,9.3a.22.22,0,0,1,.22.25C53.25,9.43,53.33,9.05,52.94,9.3Z"/><polygon class="cls-4" points="56.09 11.46 55.74 11.62 55.82 11.67 56.09 11.46"/><path class="cls-4" d="M48,9.92l.18-.2-.28,0C48,9.79,47.94,10.07,48,9.92Z"/><polygon class="cls-4" points="46.59 10.81 46.63 10.84 46.97 10.68 46.59 10.81"/><polygon class="cls-4" points="44.83 10.72 44.75 10.67 44.49 10.88 44.56 10.92 44.83 10.72"/><path class="cls-4" d="M27.16,16.35a.62.62,0,0,1-.55.16c0,.17.22.25.24.45.65,0,.57-.76,1.19-.81,0,.2-.13.42.26.29l-.09.06c.57-.38.58.3.85-.33l.06.28a2.89,2.89,0,0,1,1.08-.57v.06c.8-.56.47-.2,1.42-.61l-.37.45c.36,0,.36-.33.61-.36,0,.05.09.24-.12.35L32.8,15c.23-.28-.11-.18-.18-.29s.6-.25.66-.08-.31.24-.11.3l.3-.55c.61.12-.27.69-.5.92.56-.1.66-.44,1.24-.6a.74.74,0,0,1-.43-.14c-.09-.3.49-.31.87-.45-.28-.06-.16-.21,0-.39a.12.12,0,0,0,.06-.06l0-.06h0s0-.07-.07-.12c-.31.18-.62,0-.83,0,.33.45-.69.32-.91.55l-.3.13-.11,0s0-.13.13-.28c-.12.14-.61.24-.53.39l-1.1.32-.12-.06a.08.08,0,0,0,0,.09L26,16c.24,0,.48,0,.73,0C26.48,16.49,27.19,16,27.16,16.35Z"/><path class="cls-4" d="M35.76,13.58c-.23-.09.11-.24.12-.36l-.73.21c0,.11,0,.25,0,.34Z"/><path class="cls-4" d="M34.89,13.29a.61.61,0,0,1-.14.26l.4-.12C35.13,13.35,35.06,13.29,34.89,13.29Z"/><path class="cls-4" d="M21.5,18.29c.55-.15,1.42-.18,1.37-.57,0,.06,0,.17.11.19l.24-.4-.32,0A1.74,1.74,0,0,1,24.42,17c-.56.27-.18.57-1,.59.06.09.25.21.08.32a13.54,13.54,0,0,0,2.74-1.05c-.85-.09.45-.4.11-.73l-.39.25v-.11l-.51.18c.15.15.23.14.25.34-.7.11-.27-.17-.83-.27l-.77.25.05-.07a.15.15,0,0,0-.1.09l-2.58.84C21,17.93,21.79,17.91,21.5,18.29Z"/><path class="cls-4" d="M17,19.49l-.06.2.38-.5-.72.23v.28C16.69,19.62,16.91,19.41,17,19.49Z"/><path class="cls-4" d="M17.94,19.43l-.1-.62c-.35.22-.26.52,0,.61-.31.23-.26-.28-.42.11C17.46,19.75,17.85,19.5,17.94,19.43Z"/><polygon class="cls-4" points="20.65 18.2 20.57 18.36 20.84 18.32 20.65 18.2"/><path class="cls-4" d="M20.57,18.36l-.26,0a.74.74,0,0,0,.14.23Z"/><path class="cls-4" d="M19.92,18.49v0l-.3,0Z"/><path class="cls-4" d="M19.75,18.14l.16.32.4-.06C20.22,18.19,20.11,18,19.75,18.14Z"/><path class="cls-4" d="M25.94,20.71c0,.08-.29.25-.19.36l.42-.22C26.06,20.87,26,20.8,25.94,20.71Z"/><path class="cls-4" d="M18.51,18.67c0-.14-.2,0-.29.07A.54.54,0,0,0,18.51,18.67Z"/><path class="cls-4" d="M11,21.22a.31.31,0,0,0,.2.06Z"/><path class="cls-4" d="M8.61,26.23c.23-.08.71-.19.81-.39-.09.14-.5.07-.59.28v-.06Z"/><path class="cls-4" d="M109.53,6.28c.23-.16.57.27.53.51.38-.73.55-.06.34-1.23.21-.65.75,0,.48.6l.79-1-.61,0c-.07-1,1,0,.9-1.13l-1,.38,0-.33a.65.65,0,0,1-.84.31c0-.17-.09-.42.09-.5-1.28.28,0,1.76-.92,2.37C109.31,6.23,109.39,6.22,109.53,6.28Z"/><path class="cls-4" d="M107.91,4.25l-.16,1.32-.81-.1c.09.41-.37.89.08,1.15.06-.08.17-.24.29-.24.13.91-.87.72-.44,1.56.52-.4.66-.23.85-1.05a1.71,1.71,0,0,1,1.31.28c.13-.18,0-.73.2-.89l-.13.07L108.76,5c-.1.33-.29.24-.47.32l.5-1.8c-.58-1.18-1.25-.21-1.71-.63C107.76,3.92,106.88,3.56,107.91,4.25Z"/><path class="cls-4" d="M4.13,42.08a1.24,1.24,0,0,0-.18.45C4.19,42.33,4.19,42.2,4.13,42.08Z"/><path class="cls-4" d="M45.65,20.59a.37.37,0,0,0,0-.14l-.08.47h0A2.19,2.19,0,0,0,45.65,20.59Z"/><path class="cls-4" d="M15.21,32.29l0,.36C15.26,32.46,15.41,32.24,15.21,32.29Z"/><path class="cls-4" d="M30.74,34.75l-.11.21A.2.2,0,0,0,30.74,34.75Z"/><path class="cls-4" d="M102,6.08l.15.07A.19.19,0,0,0,102,6.08Z"/><path class="cls-4" d="M64.56,16a.52.52,0,0,0-.26,0Z"/><path class="cls-4" d="M99.08,6.81h0a.36.36,0,0,1,0,.09Z"/><path class="cls-4" d="M80.55,10.17a1,1,0,0,0,.27.23A.35.35,0,0,0,80.55,10.17Z"/><path class="cls-4" d="M53.1,16.33l-.29.28A.53.53,0,0,0,53.1,16.33Z"/><path class="cls-4" d="M61.11,15.92a1.21,1.21,0,0,0,0,.19A.21.21,0,0,0,61.11,15.92Z"/><path class="cls-4" d="M105.06,9.45h0l0,.16Z"/><path class="cls-4" d="M105.41,7.29l.26-.19A.43.43,0,0,0,105.41,7.29Z"/><path class="cls-4" d="M85.86,11c.13.17.39.34.34.59C86.31,11.23,86.14,10.56,85.86,11Z"/><path class="cls-4" d="M105.49,17.71c-.08.23-.15.42-.08.51A2.48,2.48,0,0,1,105.49,17.71Z"/><path class="cls-4" d="M106,7.25c0-.33,1.08-1.37,0-1.24-.19-1,.58-.64.8-1-.26-.17,0-.66-.19-1-.11.16-.21.49-.46.48-.22-.42.07-.82.38-.73-.46-.43.25-.9-.33-1.17a4,4,0,0,0-2,2.84c.53-.4,1.11-.88,1.68-.62v.91c-.72-.6-.92.06-1.47.13l1.3.11c.73.56.4.83,0,1.1A.23.23,0,0,1,106,7.25Z"/><path class="cls-4" d="M106.91,15h0a.29.29,0,0,0,0-.1Z"/><path class="cls-4" d="M84.37,7.29a.66.66,0,0,0-.28.12A.39.39,0,0,0,84.37,7.29Z"/><path class="cls-4" d="M59.8,33a1.06,1.06,0,0,1,0,.33A1.15,1.15,0,0,0,59.8,33Z"/><path class="cls-4" d="M74.21,20.88l-.06.12.06,0Z"/><path class="cls-4" d="M75.63,21.15c0,.11,0,.22,0,.31.38-.48,1.31-.33,1.19-1.26-.15.06-1.08-.25-1.06-.82-.27.32-.89-.18-1,0,.64.35.24.75,0,1.16-.38-.18-.11-.75-.43-.84l-.72.31L74.2,20v.92l0-.1C75.25,20.07,74.65,22,75.63,21.15Z"/><path class="cls-4" d="M75.61,21.46a.74.74,0,0,0-.12.27C75.59,21.68,75.61,21.58,75.61,21.46Z"/><path class="cls-4" d="M80.43,21.65a.83.83,0,0,0,.16-.19Z"/><path class="cls-4" d="M91.7,14.35a.54.54,0,0,0-.22,0s0,.08,0,.12S91.64,14.43,91.7,14.35Z"/><path class="cls-4" d="M75.86,19a.67.67,0,0,0-.12.37A.59.59,0,0,0,75.86,19Z"/><path class="cls-4" d="M92.92,16c-.19.16-.45.16-.81-.06a2.3,2.3,0,0,1,.42.68C92.72,16.56,92.77,16.17,92.92,16Z"/><polygon class="cls-4" points="68.39 14.34 68.39 14.34 68.39 14.34 68.39 14.34"/><path class="cls-4" d="M105.73,8.48c.17.67-.72.31-.3,1C105.53,9.14,106,9.07,105.73,8.48Z"/><path class="cls-4" d="M106.17,9.49l-.47.31.38.18C106.07,9.81,106,9.56,106.17,9.49Z"/><path class="cls-4" d="M109.24,13.79c-.47-.6-1.83-.63-1.56.61.14-.57.24-.9.67-1,.54,1.58-.57.64-.4,2.22C108.74,15.59,108.64,14.1,109.24,13.79Z"/><polygon class="cls-4" points="107.82 16.55 108.16 16.07 108.09 15.98 107.76 16.47 107.82 16.55"/><path class="cls-4" d="M95.31,5c-.15-.5-.3.08-.41.24C95,5.2,95.21,5.29,95.31,5Z"/><path class="cls-4" d="M12,27.65l-3.11,1.4C9.78,28.66,10.63,28.36,12,27.65Z"/><path class="cls-4" d="M85.38,11.28c.76-.72.93-1.71,1.77-2.18-1.41-.7-1.16,2-2.38,1.25Z"/><path class="cls-4" d="M84.62,9.11c.53-.4,0-1,.6-1l-.49-.93C85.1,8.05,84.33,8.44,84.62,9.11Z"/><polygon class="cls-4" points="92.25 22.46 92.42 22.22 92.4 21.89 92.25 22.46"/><polygon class="cls-4" points="80.98 9.09 81.02 8.84 80.52 8.66 80.98 9.09"/><polygon class="cls-4" points="93.07 23.64 92.55 24.04 92.98 24.13 93.07 23.64"/><path class="cls-4" d="M88.16,19.45c-.06.08-.63-.18-.28.41Z"/><polygon class="cls-4" points="77.95 9.99 78.29 9.51 78.23 9.42 77.89 9.91 77.95 9.99"/><path class="cls-4" d="M79.31,19.85a1.06,1.06,0,0,0,.15-.15Q79.37,19.72,79.31,19.85Z"/><path class="cls-4" d="M80,19.63c-.31-.27-.36-.12-.51.07C79.64,19.65,79.9,19.88,80,19.63Z"/><path class="cls-4" d="M77.38,20.46h.18c-.09.41,0,.33.06,0,.18-.08.11-.31.09-.47s0-.21.05-.32c0,.11-.06.22-.09.31C77.4,20.06,77.24,20.14,77.38,20.46Z"/><path class="cls-4" d="M68.15,9.74l.22-.11A.38.38,0,0,0,68.15,9.74Z"/><path class="cls-4" d="M81.27,26.78a.67.67,0,0,1,.19.25c.13,0,.18-.24.29-.34a.54.54,0,0,1-.47,0l0-.7-.12.69h0l-.06.3.12-.16Z"/><path class="cls-4" d="M70.61,20.76c.15.33.5,0,.69.1C71.05,20.85,70.61,19.85,70.61,20.76Z"/><path class="cls-4" d="M64.35,13.07c.13,0,.39.34.43.83C64.88,13.58,64.87,12.5,64.35,13.07Z"/><polygon class="cls-4" points="69.59 21.14 69.93 20.66 69.45 20.98 69.59 21.14"/><path class="cls-4" d="M66.1,24.18c-.14-.17-.76-.19-.6.31A.63.63,0,0,0,66.1,24.18Z"/><path class="cls-4" d="M37.87,20.89a1.53,1.53,0,0,0-.32.05A.46.46,0,0,0,37.87,20.89Z"/><path class="cls-4" d="M25,21.75l.48-.14A.69.69,0,0,0,25,21.75Z"/><path class="cls-4" d="M22.22,26l-.21.11A.35.35,0,0,0,22.22,26Z"/><path class="cls-4" d="M22.7,23l-3.65,1.4c-.57.64.62.92.32,1.91.74-.22,1.95,0,1.91-.93,0,.16.08.35.21.41l.23-1.07-.5-.18a1.43,1.43,0,0,1,2.17-.76c-.77.56-.08,1.57-1.39,1.28.12.28.45.73.22,1,1.3-.72,2.65-.54,3.84-1.91-1.33-.62.56-1-.08-2.07l-.51.56,0-.33-.71.31c.28.51.4.51.5,1.09-1,.05-.47-.59-1.37-1.11L22.78,23l0-.2A.25.25,0,0,0,22.7,23Z"/><path class="cls-4" d="M12.42,28.49v-.11C12.4,28.45,12.4,28.49,12.42,28.49Z"/><path class="cls-4" d="M12.41,28.38c.05-.22.32-.72.53-.45l0,.57.4-1.3-1,.38Z"/><path class="cls-4" d="M13.51,28.19c.17.67.69.11.8-.06l-.37-1.83A1.35,1.35,0,0,0,14.12,28C13.73,28.61,13.63,27.12,13.51,28.19Z"/><polygon class="cls-4" points="18.03 25.68 17.97 26.11 18.37 26.1 18.03 25.68"/><path class="cls-4" d="M18,26.1h-.4a5.94,5.94,0,0,0,.29.72Z"/><path class="cls-4" d="M16.54,26.11a1.63,1.63,0,0,0-.58,0Z"/><path class="cls-4" d="M17,26.23l0-.12h-.44A3.74,3.74,0,0,1,17,26.23Z"/><path class="cls-4" d="M16.64,25.14l.34,1h.59C17.36,25.47,17.13,24.81,16.64,25.14Z"/><path class="cls-4" d="M26.82,36.09l.57-.45c-.16,0-.27-.23-.4-.5C27,35.37,26.64,35.75,26.82,36.09Z"/><path class="cls-4" d="M27.39,35.64c.07,0,.15,0,.25-.19Z"/><path class="cls-4" d="M26.93,35l.06.12A.12.12,0,0,0,26.93,35Z"/><path class="cls-4" d="M14.49,26.24c.12,0,.32.09.43-.07C14.83,25.75,14.6,26.08,14.49,26.24Z"/><path class="cls-4" d="M4.68,30.74l-.32-.25C4.49,30.66,4.56,30.74,4.68,30.74Z"/><path class="cls-4" d="M2.68,43.81v-.16l-.28.4c.32-.14,1-.27,1.1-.82C3.4,43.62,2.75,43.24,2.68,43.81Z"/></g><path class="cls-5" d="M81.15,17a49.64,49.64,0,0,1,3,5.43c11.16-1,15.45.29,16.42,1.07-.48,1.12-3.42,4.35-12.9,9a194.88,194.88,0,0,1-32.9,12.11,191.22,191.22,0,0,1-34.19,6.62c-10.39.85-14.38-.44-15.31-1.17.52-1.21,3.75-4.66,14.15-9.65a34.29,34.29,0,0,1,.16-6.3c-9,4.11-21,10.61-19.41,17.38C1.21,56,7.29,57.78,19.29,57c10.12-.66,23.17-3.11,36.74-6.9s26.1-8.48,35.26-13.2c10.86-5.6,15.42-10.31,14.35-14.83C104.9,18.89,100.47,15,81.15,17Z"/></g></g></svg>