<svg xmlns="http://www.w3.org/2000/svg" viewBox="0 0 19.29 18.6"><defs><style>.cls-1{fill:#fecd00;}</style></defs><g id="Layer_2" data-name="Layer 2"><g id="OBJECTS"><path class="cls-1" d="M18.85,8.59a1.4,1.4,0,0,0-.73-2.4l-4.23-.71a1.38,1.38,0,0,1-1-.78L11,.81A1.39,1.39,0,0,0,8.54.75l-2,3.81a1.45,1.45,0,0,1-1.07.74l-4.26.52A1.4,1.4,0,0,0,.4,8.19l3,3.06a1.39,1.39,0,0,1,.37,1.24L3,16.71a1.4,1.4,0,0,0,2,1.51L8.8,16.31a1.36,1.36,0,0,1,1.3,0l3.75,2.08A1.4,1.4,0,0,0,15.91,17l-.63-4.24a1.38,1.38,0,0,1,.43-1.23Z"/></g></g></svg>