<svg xmlns="http://www.w3.org/2000/svg" xmlns:xlink="http://www.w3.org/1999/xlink" viewBox="0 0 174.97 136.32"><defs><style>.cls-1{fill:#ffb77d;}.cls-2{fill:#f0974f;}.cls-3{fill:url(#linear-gradient);}.cls-4{fill:#0d0b30;}.cls-5{fill:#d4e4eb;}.cls-6{fill:url(#linear-gradient-2);}.cls-7{fill:#232563;opacity:0.54;}.cls-8{fill:url(#linear-gradient-3);}.cls-9{fill:#5f9e09;opacity:0.51;}.cls-10{fill:url(#linear-gradient-4);}.cls-11{fill:#fff;}</style><linearGradient id="linear-gradient" x1="29.94" y1="79.31" x2="73.67" y2="102.55" gradientUnits="userSpaceOnUse"><stop offset="0" stop-color="#4654a3"/><stop offset="0.35" stop-color="#394693"/><stop offset="1" stop-color="#18256b"/></linearGradient><linearGradient id="linear-gradient-2" x1="-45.06" y1="-167.66" x2="83.24" y2="-167.66" gradientTransform="translate(113.16 267.4) rotate(-18.07)" gradientUnits="userSpaceOnUse"><stop offset="0" stop-color="#4654a3"/><stop offset="0.52" stop-color="#3a4893"/><stop offset="1" stop-color="#2d3a80"/></linearGradient><linearGradient id="linear-gradient-3" x1="117.05" y1="71.81" x2="174.97" y2="71.81" gradientUnits="userSpaceOnUse"><stop offset="0" stop-color="#f9df18"/><stop offset="1" stop-color="#4dc106"/></linearGradient><linearGradient id="linear-gradient-4" x1="164.42" y1="63.46" x2="151.42" y2="41.96" xlink:href="#linear-gradient-3"/></defs><g id="Layer_2" data-name="Layer 2"><g id="OBJECTS"><path class="cls-1" d="M143.94,57.32a132.75,132.75,0,0,0-8.45-16.49,11.46,11.46,0,0,0-2.75-3.42,8.75,8.75,0,0,0-5.22-1.48,16,16,0,0,0-6.26,1.21c-.5.21-1.06.52-1.16,1.06a1.16,1.16,0,0,0,.57,1.1,3,3,0,0,0,1.24.39,27.5,27.5,0,0,1,4,.56,4.39,4.39,0,0,1,3,2.41,11.81,11.81,0,0,0-3.55-.45,1.59,1.59,0,0,0-.72.12.61.61,0,0,0-.37.58c0,.28.31.45.55.59a32.4,32.4,0,0,0,6.61,2.69,10.65,10.65,0,0,1,2.07,4.54c.41,1.57.62,3.18,1.05,4.74a9.36,9.36,0,0,0,2.25,4.25,4.83,4.83,0,0,0,4.42,1.45C142.79,60.79,144.58,58.81,143.94,57.32Z"/><path class="cls-2" d="M143.94,57.32c-1-2.31-2.06-4.59-3.18-6.85A9.24,9.24,0,0,1,137,52a13.18,13.18,0,0,1-3.2.09c.24,1.15.44,2.31.75,3.43a9.36,9.36,0,0,0,2.25,4.25,4.83,4.83,0,0,0,4.42,1.45C142.79,60.79,144.58,58.81,143.94,57.32Z"/><polygon class="cls-1" points="33.78 119.89 29.14 129.28 37.27 129.33 40.7 121.92 33.78 119.89"/><path class="cls-3" d="M118.85,84.92A162.09,162.09,0,0,0,80.91,64.34c-5.11-1.94-10.76-3.63-16-2S56.05,68.9,53,73.56a179.69,179.69,0,0,0-22.35,49.63c2.83,1.2,6.66,2.42,9.74,2.31,9.16-14.92,16.42-24.14,23-37.44,16.24.78,32.71,1,48.95,1.73,1.83.09,3.76.15,5.36-.74S120.32,86,118.85,84.92Z"/><path class="cls-4" d="M22.66,129.49c-1.7.46-3.49,1-4.66,2.28a2.87,2.87,0,0,0-.68,3,2.79,2.79,0,0,0,2,1.42,9.07,9.07,0,0,0,2.55,0A87,87,0,0,1,33.41,136a12.16,12.16,0,0,0,3.81-.2A3.79,3.79,0,0,0,40,133.35a5.57,5.57,0,0,0-.18-2.71,3.7,3.7,0,0,0-1.26-2.4,3.74,3.74,0,0,0-1.88-.42L33,127.64a11.66,11.66,0,0,0-3.06-.08C27.46,128.11,25.06,128.85,22.66,129.49Z"/><path class="cls-5" d="M40,132.88a113.25,113.25,0,0,1-22.91,1,2.14,2.14,0,0,0,.2.89,2.79,2.79,0,0,0,2,1.42,9.07,9.07,0,0,0,2.55,0A87,87,0,0,1,33.41,136a12.16,12.16,0,0,0,3.81-.2A3.79,3.79,0,0,0,40,133.35,2.42,2.42,0,0,0,40,132.88Z"/><path class="cls-5" d="M22.08,129.65A8.15,8.15,0,0,0,18,131.77a2.91,2.91,0,0,0-.71,3l5.86.39a5.72,5.72,0,0,0-.27-4.28A5.64,5.64,0,0,0,22.08,129.65Z"/><polygon class="cls-1" points="7.23 101.01 15.66 97.4 15.58 104.33 6.38 107.73 7.23 101.01"/><path class="cls-6" d="M69.57,80.08c-6.22.58-35,7.86-58,18.09a7.47,7.47,0,0,0,3.19,7.73C38.52,98,56.44,100.84,69.08,93.67c29.59,5.48,35.62,19.5,66.49,17.15a13.56,13.56,0,0,0,6.57-2.8A9,9,0,0,0,146,102.2a9.15,9.15,0,0,0-1.73-6.36A24.11,24.11,0,0,0,139.57,91a41.48,41.48,0,0,0-10-6.59C125.92,82.87,73.34,79.72,69.57,80.08Z"/><path class="cls-7" d="M144.28,95.84A24.11,24.11,0,0,0,139.57,91a41.48,41.48,0,0,0-10-6.59c-1.06-.45-6.23-1-13.11-1.63-2,3.18-1.49,8.78-1,11.7a26.43,26.43,0,0,0,4.15,10.35c3.59,5.43,12.42,6.23,15.95,6a13.56,13.56,0,0,0,6.57-2.8A9,9,0,0,0,146,102.2,9.15,9.15,0,0,0,144.28,95.84Z"/><path class="cls-1" d="M163.48,17.2c0,6.52,5.29,14.57,7.79,20.58a16.72,16.72,0,0,1-13.11,0c-.49-2.25-.08-10.49-1.24-12.49,2.19-2.46-2.86-4.12-.67-6.58C157.81,17,161.92,19,163.48,17.2Z"/><path class="cls-8" d="M124.08,78.92c-2.64,1-6.85,2.2-7,5-.15,2.36,12.78,34.46,32.64,20.24,26.16-18.73,27.55-47.52,23.64-65.06-.4-1.82-3.12-3.28-4.12-3.32-17.88-.78-21.63,15.11-23.13,19.3C139.53,73.5,135.92,74.25,124.08,78.92Z"/><path class="cls-9" d="M143.46,61.89c-2.53,5.88-4.81,9.13-7.7,11.39,7.27,0,14.56-1.22,20.93-4.61a29.9,29.9,0,0,0,8.05-6.22c2-2.15,9.55-12,2.79-12.48-2.91-.22-5.67,2.42-7.9,4a58.57,58.57,0,0,1-9.06,5.43C148.27,60.38,145.85,61.09,143.46,61.89Z"/><path class="cls-4" d="M106.44,54.52a1.24,1.24,0,0,0-.32-1.63C103,50.62,92.86,43.05,88,38.75a1.76,1.76,0,0,1-.51-1.86l6.21-21.47a1.78,1.78,0,0,0-3.36-1.15c-2.24,6.15-6.22,13.84-7.77,25.29-.07.53,10.67,8,22.12,15.36A1.25,1.25,0,0,0,106.44,54.52Z"/><path class="cls-4" d="M7.74,92c-.29-1.73-.63-3.57-1.82-4.86a2.88,2.88,0,0,0-2.95-1,2.8,2.8,0,0,0-1.61,1.88,9.3,9.3,0,0,0-.25,2.53,85.09,85.09,0,0,1-.85,11.5,11.91,11.91,0,0,0-.16,3.81,3.76,3.76,0,0,0,2.16,3A5.39,5.39,0,0,0,5,109a3.7,3.7,0,0,0,2.51-1,3.75,3.75,0,0,0,.6-1.83l.53-3.66a11.77,11.77,0,0,0,.37-3C8.66,97,8.16,94.49,7.74,92Z"/><path class="cls-5" d="M2.72,109a113.21,113.21,0,0,1,1.16-22.9,2.15,2.15,0,0,0-.91.1,2.8,2.8,0,0,0-1.61,1.88,9.3,9.3,0,0,0-.25,2.53,85.09,85.09,0,0,1-.85,11.5,11.91,11.91,0,0,0-.16,3.81,3.76,3.76,0,0,0,2.16,3A2.39,2.39,0,0,0,2.72,109Z"/><path class="cls-5" d="M7.64,91.45a8.14,8.14,0,0,0-1.72-4.27,2.93,2.93,0,0,0-2.88-1c-.31,1.94-.63,3.87-.94,5.8a5.71,5.71,0,0,0,4.28.14A5.48,5.48,0,0,0,7.64,91.45Z"/><path class="cls-1" d="M158.69,41.15C156,43,154,45.75,151.91,48.26s-11.25,10.07-14,8.55c-14-7.73-20.59-7.56-27.7-13.62-1.67,1.34-2.95,2-3.71,4.29,5.78,4.84,26.87,21.94,34.29,20.61,5.75-1,16.63-8,21-11.79a20.17,20.17,0,0,0,4.35-5A9.83,9.83,0,0,0,167.59,45a6.57,6.57,0,0,0-3.77-5.09C161.77,39.06,160.5,39.88,158.69,41.15Z"/><path class="cls-10" d="M148.46,66.79c6.3-.91,14.74-6.53,18.18-10a16.68,16.68,0,0,0,5.19-11.68,6.9,6.9,0,0,0-1-4c-1.24-1.8-3.79-2.84-6.41-2.93a15.81,15.81,0,0,0-7.55,1.83C152,42.52,144.17,50.37,141,54.23A16.85,16.85,0,0,0,148.46,66.79Z"/><path class="cls-1" d="M108.53,37.09A13.3,13.3,0,0,0,98.37,36a1.91,1.91,0,0,0-1.22,1.11,1.45,1.45,0,0,0,.41,1.29,4,4,0,0,0,1.17.77c1.21.6,3.21,1.85,4.48,2.32.21,5.83,4,6.63,5.07,6.9a3.66,3.66,0,0,0,3.44-1.21C112.57,46.25,110.73,38.52,108.53,37.09Z"/><path class="cls-2" d="M157.85,33a3.62,3.62,0,0,0,1.91-1.73,8,8,0,0,0,1.05-4.73,2.41,2.41,0,0,0-.28-1,.92.92,0,0,0-.88-.44c-.83.15-1.58,1.73-2.11,2.73C157.72,29.33,157.79,31.22,157.85,33Z"/><path class="cls-1" d="M144.25,16.77a39.41,39.41,0,0,0,2.21,9,8.39,8.39,0,0,0,2.22,3.87,5.58,5.58,0,0,0,5.32.76,11.41,11.41,0,0,0,4.52-3.24,18.88,18.88,0,0,0,4.75-8.73,13.45,13.45,0,0,0-1.43-9.73,10.48,10.48,0,0,0-8.21-5.11,9.39,9.39,0,0,0-8,4.1C144,10.14,144,14,144.25,16.77Z"/><path class="cls-4" d="M140.37,11.46c2.58,1.13,4.8,3.66,14.09-.71.18,2.41-.6,11.29,10,11.93a43.53,43.53,0,0,0,2.11-10.77,9.89,9.89,0,0,0-1.8-5.83C163.52,4.44,162,3.27,160,3.79a6.27,6.27,0,0,0-8.52-2.56c-1.09.6-1.93,1.55-3,2.17S139.35,11,140.37,11.46Z"/><path class="cls-4" d="M138.83.13a5.63,5.63,0,0,0-4.13,5,7.38,7.38,0,0,0,2.8,6.09A10.81,10.81,0,0,0,144,13.48a20.73,20.73,0,0,0,6.84-1.11c2.28-.72,4.65-1.79,5.85-3.85a5.67,5.67,0,0,0,.27-5.13c-.56-1.23-1.8-2.73-3.27-2.76s-2.68.87-4,1.15a9.74,9.74,0,0,1-5.24-.7C142.66.46,140.76-.3,138.83.13Z"/><path class="cls-1" d="M159.53,17.2a2.71,2.71,0,1,1-5.38,0,2.71,2.71,0,1,1,5.38,0Z"/><polygon class="cls-4" points="147.64 18.36 147.53 18.14 155.63 14.07 155.74 14.29 147.64 18.36"/><path class="cls-11" d="M148.22,18.78c.47,2.09-.14,4-1.36,4.28s-2.6-1.2-3.07-3.29.14-4,1.37-4.27S147.75,16.69,148.22,18.78Z"/></g></g></svg>