<svg xmlns="http://www.w3.org/2000/svg" viewBox="0 0 76.6 65.36"><defs><style>.cls-1{fill:#ff2e2e;}.cls-2{fill:#d6d6d6;}.cls-3{fill:#ccc;}.cls-4{fill:#fff;}.cls-5{fill:#f0f0f0;}</style></defs><g id="Layer_2" data-name="Layer 2"><g id="OBJECTS"><path class="cls-1" d="M31.51,58.79S16.42,47.94.28,45.5L13.36,12.41s22,6.66,27.73,15.23Z"/><path class="cls-1" d="M31.51,58.79s18.57-.49,33.29,6.57l7.79-34.72s-21.91-6.84-31.5-3Z"/><path class="cls-2" d="M41.09,27.64,31.51,58.79A63.61,63.61,0,0,0,0,40.36L13,5.81S37.54,11.74,41.09,27.64Z"/><path class="cls-3" d="M41.09,27.64,31.51,58.79a63.61,63.61,0,0,1,36.42,2.47L76.6,25.39S53,16.49,41.09,27.64Z"/><path class="cls-4" d="M42.66,22.55,31.51,58.79S23.58,41.44,5.69,37.34L19.25,0S40.77,4.74,42.66,22.55Z"/><path class="cls-5" d="M42.66,22.55,31.51,58.79s16.3-9.89,33.4-3.22l9.79-38.5S54.23,8.88,42.66,22.55Z"/></g></g></svg>