<svg xmlns="http://www.w3.org/2000/svg" viewBox="0 0 75.01 50.9"><defs><style>.cls-1{fill:#fff;}.cls-2{fill:#1fddff;}.cls-3{fill:#0aabe0;}</style></defs><g id="Layer_2" data-name="Layer 2"><g id="OBJECTS"><path class="cls-1" d="M32.46,33.21C14.21,21.34-2.78,6.16.38,1.31S24.3,5.83,42.55,17.7s35.23,27,32.08,31.9S50.71,45.08,32.46,33.21Zm9.63-14.8C20.31,4.24,3.3-1.63,1.09,1.77S11.14,18.33,32.92,32.5s38.78,20,41,16.63S63.87,32.57,42.09,18.41Z"/><circle class="cls-2" cx="37.58" cy="25.5" r="22.47" transform="translate(-4.4 8.17) rotate(-11.73)"/><path class="cls-3" d="M34,36.65a8,8,0,0,0-2.56-2.91A16.47,16.47,0,0,1,29.09,32a3,3,0,0,1-.91-2.64c.34-1.5,2.25-2.49,2.06-4-.14-1.14-1.39-1.76-2.47-2.15A37,37,0,0,1,20,19.85a11.92,11.92,0,0,1-3.19-3A22.48,22.48,0,0,0,24,43.4a16.65,16.65,0,0,1,5-.65c1.89-.13,4-.68,4.92-2.33A4.23,4.23,0,0,0,34,36.65Z"/><path class="cls-3" d="M53.77,9.92a8.27,8.27,0,0,1-.37,1.35A5.77,5.77,0,0,1,50.93,14c-.72.4-1.52.64-2.23,1.05a2.84,2.84,0,0,0-1.52,1.84c-.22,1.22.75,2.3,1.6,3.2a18.08,18.08,0,0,1,3.79,5.51,9,9,0,0,1,.24,6.57c-.56,1.43-1.57,2.65-2.15,4.07a7.52,7.52,0,0,0-.34,4.45,5.67,5.67,0,0,0,1.21,2.41A22.45,22.45,0,0,0,53.77,9.92Z"/><path class="cls-3" d="M29.2,4.65a3.88,3.88,0,0,0,2.7,1.93,13.38,13.38,0,0,0,3.74,0A8.3,8.3,0,0,1,39.35,7a10.87,10.87,0,0,0,2.76,1.16c1.25.13,2.37-.69,3.35-1.47A5.78,5.78,0,0,0,47,5.09,22.45,22.45,0,0,0,29.2,4.65Z"/><path class="cls-1" d="M50.74,43.78l.72-.55A193.59,193.59,0,0,1,32.92,32.5,193.51,193.51,0,0,1,15.76,20c-.08.29-.15.58-.21.88A195.67,195.67,0,0,0,32.46,33.21,198.31,198.31,0,0,0,50.74,43.78Z"/></g></g></svg>