<svg xmlns="http://www.w3.org/2000/svg" viewBox="0 0 69.68 69.68"><defs><style>.cls-1{fill:#e02828;}.cls-2{fill:#ff2e2e;}.cls-3{fill:#d61e1e;}</style></defs><g id="Layer_2" data-name="Layer 2"><g id="OBJECTS"><circle class="cls-1" cx="34.84" cy="34.84" r="34.83" transform="translate(-13.52 25.43) rotate(-33.99)"/><ellipse class="cls-2" cx="36.08" cy="32.25" rx="31.96" ry="34.7" transform="translate(-8.57 50.89) rotate(-64.45)"/><path class="cls-3" d="M22.79,2.17c-.62.23-1.23.47-1.84.74a21.82,21.82,0,0,1,.88,8.54c-1,13.64-8.76,26.63-20,34.37.22.65.45,1.29.7,1.92,12-8,20.29-21.74,21.33-36.14A23.74,23.74,0,0,0,22.79,2.17Z"/><path class="cls-3" d="M48.91,66.69A62.73,62.73,0,0,1,66.32,19.94q-.45-.95-1-1.86A64.75,64.75,0,0,0,47,67.48C47.62,67.24,48.27,67,48.91,66.69Z"/><path class="cls-3" d="M46.32,2A264.33,264.33,0,0,1,16.45,64.41c.56.35,1.13.69,1.72,1a266,266,0,0,0,30-62.76C47.56,2.41,46.94,2.17,46.32,2Z"/><path class="cls-3" d="M5.09,16.71c-.34.57-.67,1.15-1,1.74A280.84,280.84,0,0,0,65.75,50.87c.17-.33.35-.67.51-1s.24-.52.35-.79A278.92,278.92,0,0,1,5.09,16.71Z"/></g></g></svg>