<svg xmlns="http://www.w3.org/2000/svg" viewBox="0 0 59.39 62.7"><defs><style>.cls-1{fill:#fff7d9;}.cls-2{fill:#ffc400;}.cls-3{fill:#ff2f00;}.cls-4{fill:#2228b3;}.cls-5{fill:#009245;}</style></defs><g id="Layer_2" data-name="Layer 2"><g id="OBJECTS"><path class="cls-1" d="M59.19,44.87c1.06-8.16-2.29-16.48-7.73-22.65-2.57-2.92-5.83-6.12-5.21-9.95.44-2.66,3.23-5.76,1.11-8.34-1.63-2-5.75-2.66-8.1-3.15A36.6,36.6,0,0,0,19.8,2,34,34,0,0,0,9.94,7.37,25.79,25.79,0,0,0,.73,20.45C-1.36,28.1,1.26,36.37,5.65,43A45.39,45.39,0,0,0,34,62a24.88,24.88,0,0,0,10,.29C52.07,60.66,58.12,53,59.19,44.87ZM39.24,13.78a6.4,6.4,0,0,1-5.19-1.21,3.1,3.1,0,0,1-1.35-2.38,2.76,2.76,0,0,1,1-1.86A4.83,4.83,0,0,1,39,7.79c1.51.79,3.43,2.85,2.38,4.67A3.08,3.08,0,0,1,39.24,13.78Z"/><path class="cls-2" d="M30.36,26.88c-.8,2.36.43,4.85,1.25,7.2A14.05,14.05,0,0,0,32.77,37a3.4,3.4,0,0,0,2.46,1.73,3.88,3.88,0,0,0,3.21-1.9,24.5,24.5,0,0,1,2.2-3.2,12.61,12.61,0,0,0,1.55-1.55,4.14,4.14,0,0,0-.25-4.32C39.83,24.21,32.14,21.65,30.36,26.88Z"/><path class="cls-3" d="M14.89,12C13.31,13.08,13,15.23,12.4,17.1a11.58,11.58,0,0,0-.59,2.37,2.64,2.64,0,0,0,.78,2.22,3,3,0,0,0,2.9.27,19,19,0,0,1,2.87-1,8.76,8.76,0,0,0,1.69-.27,3.24,3.24,0,0,0,1.81-2.86C22.14,14.58,18.42,9.44,14.89,12Z"/><path class="cls-4" d="M38.46,45.22c-1.41,1.56-2.92,3.35-2.83,5.45a5.8,5.8,0,0,0,1.57,3.47c1.49,1.73,3.91,3,6.06,2.18a5.08,5.08,0,0,0,3-4,10.18,10.18,0,0,0-.69-5.16c-.47-1.31-1.26-3.52-2.73-4C41.15,42.54,39.5,44.07,38.46,45.22Z"/><path class="cls-5" d="M12.83,35.75A7.65,7.65,0,0,0,13.25,40a9.88,9.88,0,0,0,1.49,3.08,4.28,4.28,0,0,0,2.86,1.72,4.11,4.11,0,0,0,3.48-1.63,7.79,7.79,0,0,0,1.46-3.69,8,8,0,0,0-.46-4.61C20.27,30.91,13.94,31.53,12.83,35.75Z"/></g></g></svg>