<svg xmlns="http://www.w3.org/2000/svg" viewBox="0 0 57.16 68.99"><defs><style>.cls-1{fill:#fecd00;}.cls-2{fill:#0070bb;}.cls-3{fill:#ffeda1;}</style></defs><g id="Layer_2" data-name="Layer 2"><g id="OBJECTS"><path class="cls-1" d="M2.32,52.33l19.49,10A127.46,127.46,0,0,1,36.39,47.19,18.25,18.25,0,1,0,6.21,31.61,130.22,130.22,0,0,1,2.32,52.33Z"/><path class="cls-2" d="M-.78,56.42H23.5a0,0,0,0,1,0,0v2a3.07,3.07,0,0,1-3.07,3.07H2.3A3.07,3.07,0,0,1-.78,58.44v-2a0,0,0,0,1,0,0Z" transform="translate(28.24 1.34) rotate(27.23)"/><path class="cls-2" d="M-1,60.28H19.62a0,0,0,0,1,0,0v2.17a3.23,3.23,0,0,1-3.23,3.23H2.2A3.23,3.23,0,0,1-1,62.45V60.28a0,0,0,0,1,0,0Z" transform="translate(29.85 2.73) rotate(27.23)"/><path class="cls-2" d="M26.57,40.63a5.15,5.15,0,1,0-9,.33L9.37,57l.94.49,8-15.57a5.13,5.13,0,0,0,1.31,1,5.4,5.4,0,0,0,1.22.44l-8,15.48.94.48L22,43.42A5.18,5.18,0,0,0,26.57,40.63Zm-5.07,1.7-.13-.06,0,0a3.83,3.83,0,0,1-1.24-.4,4.12,4.12,0,1,1,1.39.42Z"/><path class="cls-3" d="M29.17,20.22A1.64,1.64,0,1,1,28.46,18,1.63,1.63,0,0,1,29.17,20.22Z"/><path class="cls-3" d="M24.08,19.28c-.19-1-2.21-1.5-4.53-1.08s-4,1.58-3.85,2.6,2.21,1.5,4.52,1.08S24.26,20.3,24.08,19.28Z"/><path class="cls-1" d="M35,12.82a.52.52,0,0,1-.23-.71l4.15-8.06a.53.53,0,0,1,.94.48L35.7,12.6A.52.52,0,0,1,35,12.82Z"/><path class="cls-1" d="M28.44,10.54a.53.53,0,0,1-.28-.58L30,1.08a.53.53,0,0,1,1,.22l-1.89,8.88a.52.52,0,0,1-.62.4Z"/><path class="cls-1" d="M21.52,10.05a.5.5,0,0,1-.29-.44l-.52-9a.53.53,0,0,1,.5-.56.52.52,0,0,1,.55.5l.52,9.05a.53.53,0,0,1-.49.56A.49.49,0,0,1,21.52,10.05Z"/><path class="cls-1" d="M14.71,11.41a.55.55,0,0,1-.26-.3l-2.88-8.6a.52.52,0,0,1,.33-.67.53.53,0,0,1,.67.33l2.88,8.6a.52.52,0,0,1-.33.67A.53.53,0,0,1,14.71,11.41Z"/><path class="cls-1" d="M40.45,16.72a.5.5,0,0,1-.12-.08.53.53,0,0,1,0-.75L46.42,9.2a.53.53,0,0,1,.75,0,.53.53,0,0,1,0,.75L41.08,16.6A.54.54,0,0,1,40.45,16.72Z"/><path class="cls-1" d="M44.86,22.07a.52.52,0,0,1-.2-.19.53.53,0,0,1,.16-.73l7.67-4.84a.53.53,0,0,1,.73.17.52.52,0,0,1-.16.72L45.39,22A.53.53,0,0,1,44.86,22.07Z"/><path class="cls-1" d="M47.71,28.39a.51.51,0,0,1-.26-.31.53.53,0,0,1,.35-.66l8.68-2.65a.53.53,0,0,1,.66.35.54.54,0,0,1-.36.66l-8.67,2.65A.55.55,0,0,1,47.71,28.39Z"/></g></g></svg>