<svg xmlns="http://www.w3.org/2000/svg" xmlns:xlink="http://www.w3.org/1999/xlink" viewBox="0 0 73.69 56.23"><defs><style>.cls-1{fill:url(#linear-gradient);}.cls-2{fill:#0d0b30;}.cls-3{fill:#fff;}</style><linearGradient id="linear-gradient" x1="1.55" y1="17.24" x2="51.07" y2="36.79" gradientUnits="userSpaceOnUse"><stop offset="0" stop-color="#f0ff5e"/><stop offset="1" stop-color="#d100a6"/></linearGradient></defs><g id="Layer_2" data-name="Layer 2"><g id="OBJECTS"><path class="cls-1" d="M48.77.46C41.46-.77,34,.57,27.22,3.25,18.81,6.57,11.14,12.06,6.06,19.66A34.83,34.83,0,0,0,.77,46.3c.74,3.26,2.16,6.63,4.91,8.5,3.86,2.63,9.16,1.37,12.6-1.57S23.81,46,26.05,42,30.94,34,35,32c4.65-2.28,10.23-1.46,15.36-.25s10.41,2.78,15.52,1.82a10,10,0,0,0,5.71-2.9c2.25-2.52,2.57-6.45,1.58-9.83C71.59,15.5,67.16,10.54,63,7A29.56,29.56,0,0,0,48.77.46Z"/><path class="cls-2" d="M51.86,8.1a3.2,3.2,0,1,1-4.28-1.49A3.2,3.2,0,0,1,51.86,8.1Z"/><path class="cls-2" d="M57,18.8a3.2,3.2,0,1,1-4.28-1.49A3.19,3.19,0,0,1,57,18.8Z"/><path class="cls-2" d="M44.82,14.55a3.2,3.2,0,1,1-1.49,4.27A3.21,3.21,0,0,1,44.82,14.55Z"/><path class="cls-2" d="M55.53,9.37A3.2,3.2,0,1,1,54,13.65,3.2,3.2,0,0,1,55.53,9.37Z"/><path class="cls-2" d="M13.68,26.56a3.2,3.2,0,1,1-4.27-1.48A3.2,3.2,0,0,1,13.68,26.56Z"/><path class="cls-2" d="M18.86,37.27a3.2,3.2,0,1,1-4.27-1.49A3.2,3.2,0,0,1,18.86,37.27Z"/><path class="cls-2" d="M6.64,33a3.2,3.2,0,1,1-1.48,4.27A3.2,3.2,0,0,1,6.64,33Z"/><path class="cls-2" d="M17.35,27.84a3.2,3.2,0,1,1-1.49,4.27A3.2,3.2,0,0,1,17.35,27.84Z"/><path class="cls-3" d="M33.91,19l-6.75,3.27a1.78,1.78,0,1,0,1.55,3.21l6.75-3.27A1.78,1.78,0,0,0,33.91,19Z"/></g></g></svg>