<svg xmlns="http://www.w3.org/2000/svg" viewBox="0 0 81.55 64.27"><defs><style>.cls-1{fill:#494ed1;}.cls-2{fill:#2228b3;}.cls-3{fill:#fab594;}.cls-4{fill:#0d0b30;}.cls-5{fill:#1fddff;}</style></defs><g id="Layer_2" data-name="Layer 2"><g id="OBJECTS"><path class="cls-1" d="M80.75,1.48h0A3.83,3.83,0,0,0,75.37.81L7.91,53.27,0,64.27l12.61-4.95L80.07,6.85a3.83,3.83,0,0,0,.68-5.37Z"/><path class="cls-2" d="M81.08,1.91A4.13,4.13,0,0,0,75.37.81L8,53.33,7.12,54.6l2,2.63L81.12,2Z"/><path class="cls-3" d="M12.61,59.32a2,2,0,0,0-.44-1.57c-.46-.61-1.63-.53-2.12-1.24S10,54.88,9.51,54.1A1.79,1.79,0,0,0,8,53.19l-.1.08L0,64.27Z"/><path class="cls-4" d="M1.91,61.62,0,64.27l3-1.19a1.56,1.56,0,0,0-.32-.93A1.54,1.54,0,0,0,1.91,61.62Z"/><path class="cls-5" d="M80.75,1.48A3.83,3.83,0,0,0,75.37.81L69.18,5.62l4.7,6.05,6.19-4.82A3.83,3.83,0,0,0,80.75,1.48Z"/><rect class="cls-4" x="72.49" y="3.67" width="1.03" height="7.66" transform="matrix(0.79, -0.61, 0.61, 0.79, 10.78, 46.4)"/><rect class="cls-4" x="71.01" y="4.82" width="1.03" height="7.66" transform="matrix(0.79, -0.61, 0.61, 0.79, 9.76, 45.73)"/></g></g></svg>